<svg width="80" height="80" viewBox="0 0 80 80" fill="none" xmlns="http://www.w3.org/2000/svg">
<circle cx="40" cy="40" r="40" fill="#C53D28"/>
<path d="M57.1963 30.3643C57.6924 30.3643 58.0947 29.962 58.0947 29.4658V19.6953C58.0947 18.2091 56.8856 17 55.3994 17H22.6963C21.2101 17 20.001 18.2091 20.001 19.6953V60.3047C20.001 61.7909 21.2101 63 22.6963 63H55.3994C56.8856 63 58.0947 61.7909 58.0947 60.3047V53.6857C58.0947 53.1895 57.6924 52.7873 57.1963 52.7873C56.7002 52.7873 56.2979 53.1895 56.2979 53.6857V60.3047C56.2979 60.8001 55.8948 61.2031 55.3994 61.2031H22.6963C22.2009 61.2031 21.7979 60.8001 21.7979 60.3047V19.6953C21.7979 19.1999 22.2009 18.7969 22.6963 18.7969H55.3994C55.8948 18.7969 56.2979 19.1999 56.2979 19.6953V29.4658C56.2979 29.962 56.7002 30.3643 57.1963 30.3643Z" fill="white"/>
<path d="M39.0476 21.8516C34.4899 21.8516 30.782 25.5595 30.782 30.1172C30.782 32.4816 31.7801 34.617 33.3768 36.1249C33.4068 36.1569 33.4386 36.1872 33.4733 36.2148C34.9442 37.5606 36.9016 38.3827 39.0475 38.3827C41.1934 38.3827 43.1509 37.5605 44.6217 36.2148C44.6565 36.1872 44.6883 36.1568 44.7182 36.1249C46.3151 34.617 47.3132 32.4816 47.3132 30.1172C47.3132 25.5595 43.6053 21.8516 39.0476 21.8516ZM39.0476 36.5859C37.5805 36.5859 36.2266 36.0943 35.1402 35.2681C35.9298 33.8679 37.4034 32.9922 39.0476 32.9922C40.6918 32.9922 42.1654 33.8679 42.955 35.2681C41.8685 36.0943 40.5147 36.5859 39.0476 36.5859ZM37.6101 29.7578V29.1738C37.6101 28.3812 38.255 27.7363 39.0476 27.7363C39.8402 27.7363 40.4851 28.3812 40.4851 29.1738V29.7578C40.4851 30.5504 39.8402 31.1953 39.0476 31.1953C38.255 31.1953 37.6101 30.5504 37.6101 29.7578ZM44.2531 33.952C43.5905 32.9693 42.6723 32.205 41.6061 31.7331C42.0292 31.1862 42.282 30.5012 42.282 29.7578V29.1738C42.282 27.3903 40.8311 25.9395 39.0476 25.9395C37.2641 25.9395 35.8132 27.3903 35.8132 29.1738V29.7578C35.8132 30.5012 36.066 31.1862 36.4891 31.7331C35.4229 32.205 34.5047 32.9693 33.8421 33.952C33.0488 32.8781 32.5789 31.5517 32.5789 30.1172C32.5789 26.5503 35.4807 23.6484 39.0476 23.6484C42.6145 23.6484 45.5163 26.5503 45.5163 30.1172C45.5163 31.5517 45.0464 32.8781 44.2531 33.952Z" fill="white"/>
<path d="M43.8992 56.3516H39.0476C38.5515 56.3516 38.1492 56.7538 38.1492 57.25C38.1492 57.7462 38.5515 58.1484 39.0476 58.1484H43.8992C44.3953 58.1484 44.7976 57.7462 44.7976 57.25C44.7976 56.7538 44.3953 56.3516 43.8992 56.3516Z" fill="white"/>
<path d="M43.8992 51.3203H31.1414C30.6452 51.3203 30.2429 51.7225 30.2429 52.2188C30.2429 52.715 30.6452 53.1172 31.1414 53.1172H43.8992C44.3953 53.1172 44.7976 52.715 44.7976 52.2188C44.7976 51.7225 44.3953 51.3203 43.8992 51.3203Z" fill="white"/>
<path d="M43.8992 46.2891H31.1414C30.6452 46.2891 30.2429 46.6913 30.2429 47.1875C30.2429 47.6837 30.6452 48.0859 31.1414 48.0859H43.8992C44.3953 48.0859 44.7976 47.6837 44.7976 47.1875C44.7976 46.6913 44.3953 46.2891 43.8992 46.2891Z" fill="white"/>
<path d="M27.9392 41.5211C27.7722 41.3539 27.5404 41.2578 27.3032 41.2578C27.0668 41.2578 26.835 41.3539 26.668 41.5211C26.5009 41.6882 26.4048 41.92 26.4048 42.1562C26.4048 42.3925 26.5008 42.6243 26.668 42.7914C26.836 42.9586 27.0668 43.0547 27.3032 43.0547C27.5404 43.0547 27.7713 42.9586 27.9392 42.7914C28.1063 42.6243 28.2026 42.3925 28.2026 42.1562C28.2026 41.92 28.1064 41.6882 27.9392 41.5211Z" fill="white"/>
<path d="M27.9392 46.5523C27.7713 46.3852 27.5404 46.2891 27.3032 46.2891C27.0668 46.2891 26.836 46.3852 26.668 46.5523C26.5009 46.7194 26.4048 46.9512 26.4048 47.1875C26.4048 47.4238 26.5008 47.6556 26.668 47.8227C26.836 47.9898 27.0668 48.0859 27.3032 48.0859C27.5404 48.0859 27.7713 47.9898 27.9392 47.8227C28.1063 47.6556 28.2026 47.4238 28.2026 47.1875C28.2026 46.9512 28.1064 46.7194 27.9392 46.5523Z" fill="white"/>
<path d="M27.9392 51.5836C27.7713 51.4164 27.5404 51.3203 27.3032 51.3203C27.0668 51.3203 26.836 51.4164 26.668 51.5836C26.5009 51.7507 26.4048 51.9825 26.4048 52.2188C26.4048 52.455 26.5008 52.6868 26.668 52.8539C26.835 53.0211 27.0668 53.1172 27.3032 53.1172C27.5404 53.1172 27.7722 53.0211 27.9392 52.8539C28.1063 52.6868 28.2026 52.455 28.2026 52.2188C28.2026 51.9825 28.1064 51.7507 27.9392 51.5836Z" fill="white"/>
<path d="M43.8992 41.2578H31.1414C30.6452 41.2578 30.2429 41.66 30.2429 42.1562C30.2429 42.6525 30.6452 43.0547 31.1414 43.0547H43.8992C44.3953 43.0547 44.7976 42.6525 44.7976 42.1562C44.7976 41.66 44.3953 41.2578 43.8992 41.2578Z" fill="white"/>
<path d="M64.1135 28.7084C63.2407 28.2045 62.2238 28.0706 61.2501 28.3315C60.2765 28.5924 59.4627 29.2168 58.9589 30.0896L47.6528 49.6722C47.5909 49.7796 47.5517 49.8986 47.538 50.0218L46.7421 57.1504C46.7026 57.5051 46.8767 57.8496 47.1858 58.0281C47.3253 58.1086 47.4803 58.1485 47.6349 58.1485C47.8229 58.1485 48.0101 58.0897 48.1678 57.9735L53.9433 53.72C54.0431 53.6465 54.1266 53.5531 54.1885 53.4457L65.4946 33.8631C66.535 32.0612 65.9154 29.7488 64.1135 28.7084ZM48.7557 55.3088L49.1713 51.5864L51.7716 53.0877L48.7557 55.3088ZM53.0817 51.7692L49.6582 49.7926L58.731 34.078L62.1545 36.0546L53.0817 51.7692ZM63.9385 32.9646L63.0529 34.4985L59.6294 32.522L60.515 30.988C60.7789 30.5308 61.2052 30.2038 61.7151 30.0672C62.2253 29.9304 62.7578 30.0007 63.215 30.2646C63.6722 30.5286 63.9992 30.9548 64.1359 31.4648C64.2725 31.9747 64.2024 32.5074 63.9385 32.9646Z" fill="white"/>
</svg>
