<svg width="80" height="80" viewBox="0 0 80 80" fill="none" xmlns="http://www.w3.org/2000/svg">
<circle cx="40" cy="40" r="40" fill="#C53D28"/>
<path d="M51.418 37.3164C52.3456 37.3164 53.0977 36.5644 53.0977 35.6367C53.0977 34.7091 52.3456 33.957 51.418 33.957C50.4903 33.957 49.7383 34.7091 49.7383 35.6367C49.7383 36.5644 50.4903 37.3164 51.418 37.3164Z" fill="white"/>
<path d="M55.2812 21.3594H53.0977V19.6797C53.0977 18.752 52.3457 18 51.418 18C50.4903 18 49.7383 18.752 49.7383 19.6797V21.3594H42.0957V19.6797C42.0957 18.752 41.3437 18 40.416 18C39.4883 18 38.7363 18.752 38.7363 19.6797V21.3594H31.1777V19.6797C31.1777 18.752 30.4257 18 29.498 18C28.5704 18 27.8184 18.752 27.8184 19.6797V21.3594H25.7188C22.014 21.3594 19 24.3734 19 28.0781V54.2812C19 57.986 22.014 61 25.7188 61H38.5684C39.496 61 40.248 60.248 40.248 59.3203C40.248 58.3926 39.496 57.6406 38.5684 57.6406H25.7188C23.8664 57.6406 22.3594 56.1336 22.3594 54.2812V28.0781C22.3594 26.2258 23.8664 24.7188 25.7188 24.7188H27.8184V26.3984C27.8184 27.3261 28.5704 28.0781 29.498 28.0781C30.4257 28.0781 31.1777 27.3261 31.1777 26.3984V24.7188H38.7363V26.3984C38.7363 27.3261 39.4883 28.0781 40.416 28.0781C41.3437 28.0781 42.0957 27.3261 42.0957 26.3984V24.7188H49.7383V26.3984C49.7383 27.3261 50.4903 28.0781 51.418 28.0781C52.3457 28.0781 53.0977 27.3261 53.0977 26.3984V24.7188H55.2812C57.1336 24.7188 58.6406 26.2258 58.6406 28.0781V37.6523C58.6406 38.58 59.3926 39.332 60.3203 39.332C61.248 39.332 62 38.58 62 37.6523V28.0781C62 24.3734 58.986 21.3594 55.2812 21.3594Z" fill="white"/>
<path d="M51.8379 40.6758C46.2345 40.6758 41.6758 45.2345 41.6758 50.8379C41.6758 56.4413 46.2345 61 51.8379 61C57.4413 61 62 56.4413 62 50.8379C62 45.2345 57.4413 40.6758 51.8379 40.6758ZM51.8379 57.6406C48.0869 57.6406 45.0352 54.589 45.0352 50.8379C45.0352 47.0868 48.0869 44.0352 51.8379 44.0352C55.5889 44.0352 58.6406 47.0868 58.6406 50.8379C58.6406 54.589 55.5889 57.6406 51.8379 57.6406Z" fill="white"/>
<path d="M54.2734 49.1582H53.5176V47.3945C53.5176 46.4668 52.7656 45.7148 51.8379 45.7148C50.9102 45.7148 50.1582 46.4668 50.1582 47.3945V50.8379C50.1582 51.7656 50.9102 52.5176 51.8379 52.5176H54.2734C55.2011 52.5176 55.9531 51.7656 55.9531 50.8379C55.9531 49.9102 55.2011 49.1582 54.2734 49.1582Z" fill="white"/>
<path d="M44.1113 37.3164C45.039 37.3164 45.791 36.5644 45.791 35.6367C45.791 34.7091 45.039 33.957 44.1113 33.957C43.1837 33.957 42.4316 34.7091 42.4316 35.6367C42.4316 36.5644 43.1837 37.3164 44.1113 37.3164Z" fill="white"/>
<path d="M36.8047 44.623C37.7324 44.623 38.4844 43.871 38.4844 42.9434C38.4844 42.0157 37.7324 41.2637 36.8047 41.2637C35.877 41.2637 35.125 42.0157 35.125 42.9434C35.125 43.871 35.877 44.623 36.8047 44.623Z" fill="white"/>
<path d="M29.498 37.3164C30.4257 37.3164 31.1777 36.5644 31.1777 35.6367C31.1777 34.7091 30.4257 33.957 29.498 33.957C28.5704 33.957 27.8184 34.7091 27.8184 35.6367C27.8184 36.5644 28.5704 37.3164 29.498 37.3164Z" fill="white"/>
<path d="M29.498 44.623C30.4257 44.623 31.1777 43.871 31.1777 42.9434C31.1777 42.0157 30.4257 41.2637 29.498 41.2637C28.5704 41.2637 27.8184 42.0157 27.8184 42.9434C27.8184 43.871 28.5704 44.623 29.498 44.623Z" fill="white"/>
<path d="M29.498 51.9297C30.4257 51.9297 31.1777 51.1777 31.1777 50.25C31.1777 49.3223 30.4257 48.5703 29.498 48.5703C28.5704 48.5703 27.8184 49.3223 27.8184 50.25C27.8184 51.1777 28.5704 51.9297 29.498 51.9297Z" fill="white"/>
<path d="M36.8047 51.9297C37.7324 51.9297 38.4844 51.1777 38.4844 50.25C38.4844 49.3223 37.7324 48.5703 36.8047 48.5703C35.877 48.5703 35.125 49.3223 35.125 50.25C35.125 51.1777 35.877 51.9297 36.8047 51.9297Z" fill="white"/>
<path d="M36.8047 37.3164C37.7324 37.3164 38.4844 36.5644 38.4844 35.6367C38.4844 34.7091 37.7324 33.957 36.8047 33.957C35.877 33.957 35.125 34.7091 35.125 35.6367C35.125 36.5644 35.877 37.3164 36.8047 37.3164Z" fill="white"/>
</svg>
