<svg width="136" height="135" viewBox="0 0 136 135" fill="none" xmlns="http://www.w3.org/2000/svg">
<path d="M108.874 57.1359C108.125 56.072 106.513 54.0604 106.398 53.9244C79.1221 24.1385 72.3461 6.76697 70.9199 2.1542C70.5215 0.866232 69.3475 0 67.9953 0C66.6434 0 65.4693 0.866232 65.071 2.15283C63.6445 6.76834 56.8688 24.1423 29.4808 54.0604C29.4808 54.0604 27.8684 56.0723 27.1195 57.1348C20.309 66.7903 17.2041 78.6379 18.3781 90.4975C20.6599 113.56 39.144 132.143 62.3299 134.685C64.2583 134.896 66.1732 135 68.0751 135C80.3759 135 91.9886 130.618 101.256 122.378C111.812 112.995 117.865 99.5503 117.865 85.4943C117.865 75.2826 114.755 65.4771 108.874 57.1359ZM97.6278 118.356C88.0922 126.834 75.7729 130.726 62.9249 129.317C42.2838 127.054 25.8234 110.506 23.7913 89.9702C22.7449 79.392 25.5098 68.8321 31.5767 60.2315C32.238 59.2942 33.6325 57.5514 33.6272 57.5514C54.9083 34.3093 64.1279 18.1519 67.9953 9.58284C71.8574 18.1467 81.0585 34.2791 102.257 57.4222C102.265 57.4326 103.734 59.2627 104.417 60.2315C109.655 67.6615 112.425 76.3968 112.425 85.4945C112.425 98.0172 107.031 109.996 97.6278 118.356Z" fill="black"/>
<path d="M48.5119 80V63.53L44.8519 64.43L43.8919 60.65L49.9219 58.85H53.0719V80H48.5119Z" fill="black"/>
<path d="M76.6243 103V99.34L83.6143 93.61C84.9943 92.47 85.9443 91.56 86.4643 90.88C86.9843 90.18 87.2443 89.41 87.2443 88.57C87.2443 87.71 86.9843 87.04 86.4643 86.56C85.9443 86.08 85.2643 85.84 84.4243 85.84C83.6443 85.84 82.9343 86.06 82.2943 86.5C81.6743 86.92 80.9543 87.64 80.1343 88.66L76.8943 86.05C77.9943 84.55 79.1243 83.45 80.2843 82.75C81.4643 82.05 82.9443 81.7 84.7243 81.7C86.9043 81.7 88.6543 82.3 89.9743 83.5C91.2943 84.68 91.9543 86.26 91.9543 88.24C91.9543 89.38 91.7343 90.41 91.2943 91.33C90.8543 92.23 90.2843 93.03 89.5843 93.73C88.8843 94.41 87.8343 95.29 86.4343 96.37L83.0143 99.01H92.1643V103H76.6243Z" fill="black"/>
<path d="M77.5136 70.36C74.0936 70.36 71.3636 69.15 69.3236 66.73L72.5036 63.7C74.0036 65.38 75.6936 66.22 77.5736 66.22C78.4536 66.22 79.1636 65.99 79.7036 65.53C80.2636 65.05 80.5436 64.41 80.5436 63.61C80.5436 62.75 80.1836 62.09 79.4636 61.63C78.7436 61.17 77.7336 60.94 76.4336 60.94H74.5136L73.7936 58L78.8036 52.96H70.5536V49H84.7436V52.48L79.4336 57.55C83.1936 58.19 85.0736 60.17 85.0736 63.49C85.0736 65.51 84.3836 67.16 83.0036 68.44C81.6436 69.72 79.8136 70.36 77.5136 70.36Z" fill="black"/>
<path d="M58.0982 115V110.47H47.8382L47.0882 107.2L58.6082 93.85H62.5082V106.72H65.3282V110.47H62.5082V115H58.0982ZM52.5182 106.72H58.0982V100.18L52.5182 106.72Z" fill="black"/>
<path d="M107.167 20.88V13.68H99.927V8.16H107.167V0.96H112.847V8.16H120.087V13.68H112.847V20.88H107.167ZM103.836 35.52V29.68H116.156V35.52H103.836Z" fill="#C53D28"/>
</svg>
