<svg width="161" height="161" viewBox="0 0 161 161" fill="none" xmlns="http://www.w3.org/2000/svg">
<g clip-path="url(#clip0)">
<path d="M114.258 150.613H154.215L143.957 119.839C141.275 111.791 134.43 105.824 126.092 104.26L98.6774 99.1189V92.775C105.245 88.0358 109.88 80.8168 111.225 72.4915C117.353 71.4554 122.048 66.145 122.048 59.7258V41.5484C122.048 18.6396 103.409 0 80.5 0C57.5913 0 38.9516 18.6396 38.9516 41.5484V59.7258C38.9516 66.1372 43.6232 71.4788 49.7412 72.5253C51.0916 80.8506 55.7528 88.0774 62.3226 92.8139V99.1215L34.9059 104.263C26.5702 105.826 19.7225 111.794 17.0401 119.841L6.7854 150.613H46.742V145.419H39.6813L44.0673 127.87L39.0295 126.614L34.3268 145.419H13.9889L21.9687 121.482C24.0539 115.224 29.3799 110.581 35.8641 109.363L52.4055 106.263L56.6357 125.292C53.8727 126.491 51.9355 129.239 51.9355 132.435V153.21C51.9355 157.505 55.4308 161 59.7258 161H101.274C105.569 161 109.065 157.505 109.065 153.21V132.435C109.065 129.239 107.127 126.491 104.367 125.292L108.597 106.263L125.139 109.363C131.623 110.581 136.946 115.224 139.034 121.482L147.011 145.419H126.673L121.97 126.614L116.933 127.87L121.319 145.419H114.258V150.613ZM103.489 105.304L99.9031 121.441L98.1087 114.258H86.7686L96.948 104.079L103.489 105.304ZM95.351 124.645H65.6491L66.9475 119.452H94.0526L95.351 124.645ZM80.5 113.183L67.5162 100.199V95.821C71.4736 97.6439 75.8648 98.6774 80.5 98.6774C85.1379 98.6774 89.5264 97.6309 93.4839 95.808V100.199L80.5 113.183ZM111.661 67.0383V52.4159C114.676 53.4909 116.855 56.3474 116.855 59.7284C116.855 63.1094 114.676 65.9633 111.661 67.0383ZM49.3387 67.0721C46.3161 65.9996 44.1452 63.112 44.1452 59.7258C44.1452 56.3396 46.3161 53.452 49.3387 52.3795V67.0721ZM44.1452 49.4062V41.5484C44.1452 21.5013 60.4529 5.19355 80.5 5.19355C100.547 5.19355 116.855 21.5013 116.855 41.5484V49.4062C115.318 48.2429 113.541 47.3833 111.578 46.9964C111.171 43.9296 108.569 41.5484 105.393 41.5484C103.744 41.5484 102.129 42.2184 100.83 43.5167C96.4442 47.9027 90.8871 50.6994 84.8678 51.6083L85.034 51.2759C85.465 50.4086 85.6936 49.44 85.6936 48.4714V47.817C85.6936 44.3607 82.8813 41.5484 79.425 41.5484C77.776 41.5484 76.1608 42.2184 74.9923 43.3843C69.5209 48.8531 62.2629 51.8861 54.5323 51.9355V46.7419H51.9355C49.0012 46.7419 46.3213 47.7573 44.1452 49.4062ZM54.5323 67.5161V57.129C63.6496 57.0797 72.2137 53.5065 78.6615 47.0587C79.2873 46.4303 80.5 46.9419 80.5 47.817V48.4714C80.5 48.6376 80.4611 48.8038 80.3858 48.9544L76.2984 57.129H80.5C89.568 57.129 98.0906 53.6 104.629 47.0587C105.258 46.4303 106.468 46.9419 106.468 47.817V67.5161C106.468 81.8347 94.8186 93.4839 80.5 93.4839C66.1814 93.4839 54.5323 81.8347 54.5323 67.5161ZM64.0521 104.079L74.2314 114.258H62.8913L61.0969 121.441L57.5108 105.304L64.0521 104.079ZM59.7258 155.806C58.295 155.806 57.1291 154.643 57.1291 153.21V132.435C57.1291 131.002 58.295 129.839 59.7258 129.839H67.8044C64.426 133.142 62.3226 137.738 62.3226 142.823C62.3226 147.907 64.426 152.503 67.8044 155.806H59.7258ZM80.5 155.806C73.3407 155.806 67.5162 149.982 67.5162 142.823C67.5162 135.663 73.3407 129.839 80.5 129.839C87.6593 129.839 93.4839 135.663 93.4839 142.823C93.4839 149.982 87.6593 155.806 80.5 155.806ZM103.871 153.21C103.871 154.643 102.705 155.806 101.274 155.806H93.1956C96.5741 152.503 98.6774 147.907 98.6774 142.823C98.6774 137.738 96.5741 133.142 93.1956 129.839H101.274C102.705 129.839 103.871 131.002 103.871 132.435V153.21Z" fill="black"/>
<mask id="mask0" mask-type="alpha" maskUnits="userSpaceOnUse" x="46" y="114" width="72" height="48">
<path d="M51.9321 126.992L56.8235 125.27L61.1283 121.396L62.4198 114.078H99.4411L99.8716 121.396L104.607 125.27L106.759 120.535L117.091 161.431H46.4919L51.9321 126.992Z" fill="#C4C4C4"/>
</mask>
<g mask="url(#mask0)">
<path d="M114.211 150.613H154.112L143.869 119.839C141.191 111.791 134.355 105.824 126.028 104.26L98.6522 99.1189V92.775C105.21 88.0358 109.839 80.8168 111.182 72.4915C117.302 71.4554 121.991 66.145 121.991 59.7258V41.5484C121.991 18.6396 103.377 0 80.5 0C57.6231 0 39.0093 18.6396 39.0093 41.5484V59.7258C39.0093 66.1372 43.6744 71.4788 49.7839 72.5253C51.1324 80.8506 55.7871 88.0774 62.3478 92.8139V99.1215L34.9691 104.263C26.6451 105.826 19.8069 111.794 17.1281 119.841L6.8877 150.613H46.7888V145.419H39.738L44.1178 127.87L39.0871 126.614L34.3908 145.419H14.0811L22.05 121.482C24.1323 115.224 29.4509 110.581 35.926 109.363L52.4445 106.263L56.6688 125.292C53.9096 126.491 51.9751 129.239 51.9751 132.435V153.21C51.9751 157.505 55.4655 161 59.7546 161H101.245C105.534 161 109.025 157.505 109.025 153.21V132.435C109.025 129.239 107.09 126.491 104.334 125.292L108.558 106.263L125.077 109.363C131.552 110.581 136.868 115.224 138.953 121.482L146.919 145.419H126.609L121.913 126.614L116.882 127.87L121.262 145.419H114.211V150.613ZM103.457 105.304L99.8762 121.441L98.0843 114.258H86.7599L96.9251 104.079L103.457 105.304ZM95.3303 124.645H65.6697L66.9662 119.452H94.0338L95.3303 124.645ZM80.5 113.183L67.5342 100.199V95.821C71.4861 97.6439 75.8712 98.6774 80.5 98.6774C85.1314 98.6774 89.5139 97.6309 93.4658 95.808V100.199L80.5 113.183ZM111.618 67.0383V52.4159C114.629 53.4909 116.804 56.3474 116.804 59.7284C116.804 63.1094 114.629 65.9633 111.618 67.0383ZM49.382 67.0721C46.3635 65.9996 44.1956 63.112 44.1956 59.7258C44.1956 56.3396 46.3635 53.452 49.382 52.3795V67.0721ZM44.1956 49.4062V41.5484C44.1956 21.5013 60.4807 5.19355 80.5 5.19355C100.519 5.19355 116.804 21.5013 116.804 41.5484V49.4062C115.269 48.2429 113.495 47.3833 111.535 46.9964C111.128 43.9296 108.53 41.5484 105.358 41.5484C103.711 41.5484 102.098 42.2184 100.802 43.5167C96.4221 47.9027 90.8727 50.6994 84.8617 51.6083L85.0277 51.2759C85.4581 50.4086 85.6863 49.44 85.6863 48.4714V47.817C85.6863 44.3607 82.8779 41.5484 79.4264 41.5484C77.7798 41.5484 76.1668 42.2184 74.9999 43.3843C69.5361 48.8531 62.2882 51.8861 54.5683 51.9355V46.7419H51.9751C49.0448 46.7419 46.3687 47.7573 44.1956 49.4062ZM54.5683 67.5161V57.129C63.6729 57.0797 72.2252 53.5065 78.664 47.0587C79.289 46.4303 80.5 46.9419 80.5 47.817V48.4714C80.5 48.6376 80.4611 48.8038 80.3859 48.9544L76.3043 57.129H80.5C89.5554 57.129 98.0661 53.6 104.596 47.0587C105.223 46.4303 106.432 46.9419 106.432 47.817V67.5161C106.432 81.8347 94.7987 93.4839 80.5 93.4839C66.2013 93.4839 54.5683 81.8347 54.5683 67.5161ZM64.0749 104.079L74.2401 114.258H62.9157L61.1238 121.441L57.5427 105.304L64.0749 104.079ZM59.7546 155.806C58.3258 155.806 57.1615 154.643 57.1615 153.21V132.435C57.1615 131.002 58.3258 129.839 59.7546 129.839H67.822C64.4483 133.142 62.3478 137.738 62.3478 142.823C62.3478 147.907 64.4483 152.503 67.822 155.806H59.7546ZM80.5 155.806C73.3506 155.806 67.5342 149.982 67.5342 142.823C67.5342 135.663 73.3506 129.839 80.5 129.839C87.6494 129.839 93.4658 135.663 93.4658 142.823C93.4658 149.982 87.6494 155.806 80.5 155.806ZM103.839 153.21C103.839 154.643 102.674 155.806 101.245 155.806H93.178C96.5517 152.503 98.6522 147.907 98.6522 142.823C98.6522 137.738 96.5517 133.142 93.178 129.839H101.245C102.674 129.839 103.839 131.002 103.839 132.435V153.21Z" fill="#C53D28"/>
</g>
<path d="M80.5 135.032C76.205 135.032 72.7097 138.527 72.7097 142.823C72.7097 147.118 76.205 150.613 80.5 150.613C84.7951 150.613 88.2904 147.118 88.2904 142.823C88.2904 138.527 84.7951 135.032 80.5 135.032ZM80.5 145.419C79.0692 145.419 77.9033 144.256 77.9033 142.823C77.9033 141.389 79.0692 140.226 80.5 140.226C81.9309 140.226 83.0968 141.389 83.0968 142.823C83.0968 144.256 81.9309 145.419 80.5 145.419Z" fill="#C53D28"/>
</g>
<defs>
<clipPath id="clip0">
<rect width="161" height="161" fill="white"/>
</clipPath>
</defs>
</svg>
