<svg width="135" height="135" viewBox="0 0 135 135" fill="none" xmlns="http://www.w3.org/2000/svg">
<g clip-path="url(#clip0)">
<path d="M80.9999 22.5H51.75V27.0001H80.9999V22.5Z" fill="black"/>
<path d="M103.5 36H31.5V40.5001H103.5V36Z" fill="black"/>
<path d="M80.9999 49.5H31.5V54.0001H80.9999V49.5Z" fill="black"/>
<path d="M103.5 49.5H90V54.0001H103.5V49.5Z" fill="black"/>
<path d="M103.5 63H31.5V67.5001H103.5V63Z" fill="black"/>
<path d="M58.5 76.5H31.5V81.0001H58.5V76.5Z" fill="black"/>
<path d="M42.7501 87.75H31.5V92.2501H42.7501V87.75Z" fill="black"/>
<path d="M58.5 87.75H51.75V92.2501H58.5V87.75Z" fill="black"/>
<path d="M123.75 0C117.547 0 112.5 5.04668 112.5 11.2501V15.7502C112.5 16.9921 113.505 18.0001 114.75 18.0001H132.75C133.994 18.0001 135 16.9921 135 15.7502V11.2501C135 5.04668 129.953 0 123.75 0ZM130.5 13.5H117V11.2501C117 7.52862 120.028 4.50009 123.75 4.50009C127.471 4.50009 130.5 7.52862 130.5 11.2501V13.5Z" fill="black"/>
<path d="M123.75 0H29.2498C23.0467 0 18 5.04668 18 11.2501V119.25H22.5001V11.2501C22.5001 7.52862 25.5286 4.50009 29.2501 4.50009H114.755C113.34 6.38112 112.5 8.71884 112.5 11.2501V123.75C112.5 127.472 109.472 130.5 105.75 130.5H20.2499V135H105.75C111.953 135 117 129.953 117 123.75V11.2501C117 7.52862 120.029 4.50009 123.75 4.50009C124.994 4.50009 126 3.49207 126 2.25018C126 1.00828 124.994 0 123.75 0Z" fill="black"/>
<path d="M105.75 130.5C102.029 130.5 99.0001 127.471 99.0001 123.75V119.25C99.0001 118.006 97.9944 117 96.7502 117H2.24991C1.00802 117 0 118.006 0 119.25V123.75C0 129.953 5.04668 135 11.2501 135H105.75C106.994 135 108 133.994 108 132.75C108 131.506 106.994 130.5 105.75 130.5ZM11.2501 130.5C7.52862 130.5 4.50009 127.471 4.50009 123.75V121.5H94.5V123.75C94.5 126.281 95.3393 128.619 96.7544 130.5H11.2501Z" fill="black"/>
<path d="M97.8925 86.5374C97.8877 86.5374 97.8831 86.5374 97.8783 86.5374H92.1137V80.7586C92.1215 79.5931 91.1829 78.6418 90.0174 78.634C90.0126 78.634 90.0079 78.634 90.0033 78.634H81.6749C80.5094 78.634 79.5645 79.5789 79.5645 80.7444V86.5233H73.7999C72.6344 86.5155 71.6831 87.4538 71.6753 88.6193C71.6753 88.6289 71.6753 88.6383 71.6753 88.6478V96.962C71.6753 98.1275 72.6202 99.0724 73.7857 99.0724H79.5645V104.837C79.5567 106.003 80.4953 106.954 81.6608 106.962C81.6656 106.962 81.6703 106.962 81.6749 106.962H89.9891C91.1546 106.962 92.0995 106.017 92.0995 104.851V99.0724H97.8783C99.0438 99.0802 99.9951 98.1417 100.003 96.9762C100.003 96.9714 100.003 96.9666 100.003 96.962V88.6478C100.003 87.4823 99.0582 86.5374 97.8925 86.5374ZM97.1701 96.2396H90.6973C89.9151 96.2396 89.2809 96.8738 89.2809 97.656V104.129H82.3973V97.656C82.3973 96.8738 81.7631 96.2396 80.9809 96.2396H74.5081V89.3702H80.9809C81.7631 89.3702 82.3973 88.736 82.3973 87.9538V81.4668H89.2667V87.9397C89.2667 88.7218 89.9009 89.356 90.6831 89.356H97.1701V96.2396Z" fill="#C53D28"/>
</g>
<defs>
<clipPath id="clip0">
<rect width="135" height="135" fill="white"/>
</clipPath>
</defs>
</svg>
