<svg width="170" height="170" viewBox="0 0 170 170" fill="none" xmlns="http://www.w3.org/2000/svg">
<g clip-path="url(#clip0)">
<path d="M115.766 131.444L54.2337 131.435C52.5366 131.435 51.1575 132.841 51.1575 134.579C51.1575 136.313 52.5334 137.722 54.2337 137.722L115.766 137.731C117.464 137.731 118.843 136.325 118.843 134.588C118.842 132.853 117.467 131.444 115.766 131.444Z" fill="black"/>
<path d="M103.214 144.028H66.7858C65.1078 144.028 63.75 145.26 63.75 146.782C63.75 148.305 65.1078 149.537 66.7858 149.537H103.214C104.892 149.537 106.25 148.305 106.25 146.782C106.25 145.26 104.892 144.028 103.214 144.028Z" fill="black"/>
<path d="M134.583 21.2506H127.5V13.932C127.5 6.19374 120.952 -0.0773067 113.333 0.000720322C112.245 0.0120093 111.292 0.162751 110.169 0.446969L34.6583 21.3273C27.2035 21.7311 21.2502 27.8643 21.2502 35.4174V155.834C21.2502 163.647 27.6036 170 35.417 170H134.583C142.396 170 148.75 163.647 148.75 155.834V35.4174C148.75 27.6044 142.396 21.2506 134.583 21.2506ZM111.988 7.29143C116.121 6.23657 120.416 9.58443 120.416 13.932V21.2506H61.5115L111.988 7.29143ZM141.667 155.834C141.667 159.738 138.488 162.917 134.583 162.917H35.417C31.5123 162.917 28.3338 159.738 28.3338 155.834V35.4174C28.3338 31.5127 31.5123 28.3342 35.417 28.3342H134.583C138.488 28.3342 141.667 31.5127 141.667 35.4174V155.834Z" fill="black"/>
<path d="M84.8987 39.1562C83.6834 40.3803 82.5226 42.6658 82.1253 44.5872C81.8682 45.8345 81.8214 46.6015 81.8682 48.732C81.9383 51.7922 82.2655 61.306 82.5537 68.7978C82.7797 74.7013 82.1954 79.4892 80.7775 83.4016C80.2399 84.8736 79.7958 85.7568 79.3284 86.2991C78.0975 87.7014 76.812 89.6383 75.9394 91.3969C74.4125 94.4881 73.61 97.7343 73.462 101.422L73.4075 102.693L75.6979 102.677L77.9884 102.654L78.0351 101.492C78.0975 100.175 78.4558 97.7111 78.7986 96.301C79.4375 93.6824 80.5515 91.3195 82.1253 89.2122C82.7797 88.3445 84.4469 86.6323 85.0623 86.2062L85.4363 85.9428L86.34 86.826C89.2771 89.6925 91.3261 93.264 92.1597 96.9673C92.4323 98.1991 92.7518 100.531 92.8063 101.709L92.853 102.693L95.1201 102.677L97.3872 102.654L97.3638 101.647C97.3093 98.6485 96.6783 95.6812 95.5252 92.8922C94.6215 90.7306 93.0322 88.1663 91.513 86.4308C91.2793 86.1597 91.0222 85.7723 90.9443 85.5786C90.8742 85.3849 90.6716 84.8814 90.5002 84.463C89.503 82.0536 88.7629 79.0243 88.4357 75.9641C88.1319 73.1673 88.0929 70.8663 88.2721 66.551C88.3344 65.017 88.4591 61.6159 88.5448 58.9973C88.6305 56.3787 88.7551 52.6677 88.8252 50.7541C88.9577 46.9811 88.9187 46.0282 88.6149 44.5949C88.1708 42.5651 87.1347 40.5198 85.8882 39.2105L85.374 38.6759L84.8987 39.1562Z" fill="#C53D28"/>
<path d="M59.6414 77.7459V108.271H66.7543H73.875L74.0931 109.1C74.7787 111.742 76.0953 114.414 77.8093 116.661C79.6011 119.009 82.1876 121.31 84.6651 122.782L85.413 123.223L86.2076 122.774C88.8175 121.279 91.3105 119.063 93.2037 116.537C94.0918 115.367 94.6216 114.484 95.2916 113.113C95.9849 111.687 96.3277 110.773 96.7017 109.355L96.9821 108.271H104.103H111.216V77.7459V47.2212H111.06C110.561 47.2212 108.24 48.8017 106.479 50.3512C103.861 52.6444 101.438 55.8905 99.8803 59.1832C98.4078 62.2899 97.4496 65.8692 97.0834 69.6499C96.7173 73.3222 96.616 74.2751 96.3355 76.5451C96.0317 79.0243 95.759 81.3872 95.4941 83.9516L95.3539 85.3229L96.2187 85.3539C97.1925 85.3926 97.6677 85.5321 98.4546 86.0047C100.005 86.9421 100.854 88.5381 100.62 90.0411C100.41 91.3659 99.4985 92.435 97.7534 93.3957C97.5742 93.4964 97.4418 93.6204 97.4574 93.6591C97.6755 94.1627 98.252 96.2777 98.4468 97.2461C98.4935 97.5173 98.5637 97.7342 98.5948 97.7342C98.7195 97.7342 100.059 97.1687 100.465 96.944C102.311 95.9058 103.612 94.4803 104.337 92.6984C104.812 91.5441 104.936 90.8545 104.944 89.4445C104.944 87.9028 104.812 87.3062 104.173 85.9969C103.448 84.5172 102.467 83.417 101.064 82.4951C100.488 82.1155 100.262 81.9218 100.184 81.7281C100.083 81.4957 100.114 81.1625 100.465 78.3502C100.862 75.1428 101.142 72.6017 101.361 70.4247C101.423 69.7429 101.555 68.7512 101.641 68.2166C102.132 65.1564 103.409 61.6004 104.929 59.0747C105.474 58.1683 106.759 56.2082 106.814 56.2082C106.837 56.2082 106.853 67.0468 106.853 80.3026V104.397H98.0884H89.3239V106.334V108.271H90.7496C91.5364 108.271 92.1987 108.294 92.222 108.317C92.2921 108.387 91.8481 109.967 91.5053 110.882C90.8431 112.625 89.7991 114.399 88.5604 115.863C88.2176 116.266 87.867 116.669 87.7735 116.746L87.6099 116.894L87.6255 110.161L87.6489 103.429L87.9138 102.894C88.4046 101.895 89.5109 101.042 90.8275 100.632C91.1859 100.523 91.2716 100.461 91.2716 100.33C91.2716 99.7253 90.773 96.758 90.6483 96.6186C90.5704 96.5411 89.6745 96.8278 89.0824 97.1222C88.4903 97.4166 87.2048 98.2843 86.2232 99.0435L85.4208 99.6711L84.5092 98.9583C83.4809 98.1603 82.398 97.4321 81.7669 97.1144C81.1748 96.82 80.2867 96.5411 80.2088 96.6186C80.0841 96.7503 79.5232 100.051 79.5699 100.423C79.5699 100.446 79.8426 100.57 80.1698 100.686C81.5332 101.182 82.4681 101.926 82.9433 102.894L83.2082 103.429L83.2238 110.13L83.2472 116.832L82.733 116.305C81.7981 115.336 80.723 113.779 80.0218 112.392C79.4297 111.215 78.487 108.457 78.6351 108.317C78.6584 108.294 79.3206 108.271 80.1075 108.271H81.5332V106.334V104.397H72.7687H64.0041V80.3026C64.0041 67.0468 64.0197 56.2082 64.0353 56.2082C64.0821 56.2082 65.3675 58.1915 65.9518 59.1522C67.0503 60.9573 68.1488 63.6767 68.7565 66.0861C69.107 67.4729 69.3486 69.0689 69.6134 71.703C69.7459 73.0045 70.0263 75.4915 70.2445 77.2424C70.4626 78.9855 70.6574 80.7132 70.673 81.0773C70.7197 81.8753 70.7197 81.8753 69.6913 82.5571C67.0737 84.2847 65.5389 87.3372 65.8739 90.1573C66.2868 93.7133 68.2423 96.208 71.6234 97.5018C71.9507 97.6335 72.2389 97.7342 72.2623 97.7342C72.2857 97.7342 72.3558 97.4631 72.4103 97.1299C72.5272 96.4327 72.9634 94.7205 73.1972 94.062C73.2829 93.8063 73.353 93.5971 73.353 93.5816C73.353 93.5739 73.0647 93.3879 72.7141 93.171C70.8833 92.0709 70.1822 91.0405 70.2055 89.4832C70.2211 88.3289 70.6184 87.4999 71.5222 86.6709C72.535 85.7567 73.353 85.4081 74.6229 85.3539C75.3786 85.3229 75.4565 85.3074 75.4565 85.1757C75.4565 84.8735 74.8955 79.8067 74.5605 77.0487C74.132 73.5159 74.0074 72.4157 73.8594 70.6571C73.5633 67.3334 73.1037 64.9782 72.2233 62.3674C70.3146 56.6653 66.8088 51.9084 61.9941 48.484C61.0437 47.81 60.0387 47.2212 59.8205 47.2212H59.6414V77.7459Z" fill="#C53D28"/>
</g>
<defs>
<clipPath id="clip0">
<rect width="170" height="170" fill="white"/>
</clipPath>
</defs>
</svg>
