<svg width="168" height="168" viewBox="0 0 168 168" fill="none" xmlns="http://www.w3.org/2000/svg">
<path d="M51.6122 85.9661H38.9487C28.0124 85.9931 19.1533 94.8522 19.1262 105.789V112.137C19.1262 113.335 20.0981 114.307 21.2969 114.307H69.2559C69.2641 114.307 69.2723 114.307 69.2805 114.307C70.4793 114.298 71.4438 113.319 71.4348 112.12V105.789C71.4077 94.8522 62.5486 85.9931 51.6122 85.9661ZM67.0935 109.95H23.4675V105.789C23.5122 97.2571 30.4173 90.352 38.9487 90.3074H51.6122C60.1437 90.352 67.0488 97.2571 67.0935 105.789V109.95Z" fill="black"/>
<path d="M146.728 110.059H88.5707C87.4767 110.126 86.6048 110.998 86.5376 112.092C86.4639 113.289 87.3743 114.318 88.5707 114.392H146.728C147.822 114.325 148.694 113.452 148.761 112.359C148.834 111.162 147.924 110.133 146.728 110.059Z" fill="black"/>
<path d="M55.4866 78.7905L55.6177 78.6676C55.6193 78.666 55.6209 78.6643 55.623 78.6623C61.3314 72.951 61.3293 63.6934 55.6177 57.985C52.8802 55.2361 49.1602 53.6912 45.2805 53.6929C41.461 53.6912 37.7934 55.1882 35.0661 57.8621L34.9351 57.985C34.9335 57.9867 34.9318 57.9883 34.9298 57.9903C29.2214 63.7016 29.2234 72.9592 34.9351 78.6676C40.5931 84.3371 49.7614 84.392 55.4866 78.7905ZM38.0231 61.0649L38.1296 60.9584C42.167 57.066 48.5749 57.1131 52.5542 61.0649L52.5788 61.0567C56.5961 65.0769 56.5961 71.5921 52.5788 75.6123L52.4723 75.7188C48.4341 79.6296 42.0077 79.5858 38.0231 75.6205C34.0058 71.6003 34.0058 65.0851 38.0231 61.0649Z" fill="black"/>
<path d="M153.543 23.5005H14.4573C6.48205 23.523 0.0225256 29.9825 0 37.9578V130.042C0.0225256 138.018 6.48205 144.477 14.4573 144.5H153.543C161.518 144.477 167.977 138.018 168 130.042V37.9578C167.977 29.9825 161.518 23.523 153.543 23.5005ZM163.667 130.042C163.649 135.626 159.127 140.149 153.543 140.167H14.4573C8.87345 140.149 4.35113 135.626 4.33311 130.042V37.9578C4.35113 32.3739 8.87345 27.8516 14.4573 27.8336H153.543C159.127 27.8516 163.649 32.3739 163.667 37.9578V130.042Z" fill="black"/>
<path d="M146.728 62.9106H88.5706C87.4767 62.9778 86.6047 63.8502 86.5371 64.9441C86.4634 66.1408 87.3739 67.1704 88.5706 67.2438H146.728C147.821 67.1766 148.693 66.3042 148.761 65.2103C148.834 64.014 147.924 62.9844 146.728 62.9106Z" fill="black"/>
<path d="M146.728 86.4849H88.5706C87.4767 86.552 86.6047 87.4244 86.5371 88.5183C86.4634 89.715 87.3739 90.7446 88.5706 90.818H146.728C147.821 90.7508 148.693 89.8784 148.761 88.7845C148.834 87.5882 147.924 86.5586 146.728 86.4849Z" fill="black"/>
<path d="M146.728 74.6978H88.5706C87.4767 74.7649 86.6047 75.6373 86.5371 76.7312C86.4634 77.9279 87.3739 78.9576 88.5706 79.0309H146.728C147.821 78.9637 148.693 78.0913 148.761 76.9974C148.834 75.8011 147.924 74.7715 146.728 74.6978Z" fill="black"/>
<path d="M146.728 98.2717H88.5707C87.4767 98.3389 86.6048 99.2112 86.5376 100.305C86.4639 101.501 87.3743 102.531 88.5707 102.605H146.728C147.822 102.538 148.694 101.665 148.761 100.572C148.834 99.3751 147.924 98.3454 146.728 98.2717Z" fill="black"/>
<path d="M86.3732 58.8894V49.0894H88.3892L92.2112 55.0254V49.0894H94.4372V58.8894H92.5752L88.5992 52.7854V58.8894H86.3732ZM95.5992 57.1534V55.8794H99.3512V57.1534H95.5992ZM99.0012 54.5634C98.5906 54.9741 98.0772 55.1794 97.4612 55.1794C96.8452 55.1794 96.3319 54.9741 95.9212 54.5634C95.5199 54.1527 95.3192 53.6441 95.3192 53.0374C95.3192 52.4307 95.5246 51.9221 95.9352 51.5114C96.3552 51.0914 96.8732 50.8814 97.4892 50.8814C98.1052 50.8814 98.6139 51.0867 99.0152 51.4974C99.4259 51.9081 99.6312 52.4167 99.6312 53.0234C99.6312 53.6301 99.4212 54.1434 99.0012 54.5634ZM97.4892 54.0594C97.7506 54.0594 97.9606 53.9614 98.1192 53.7654C98.2872 53.5694 98.3712 53.3267 98.3712 53.0374C98.3712 52.7481 98.2872 52.5054 98.1192 52.3094C97.9512 52.1041 97.7319 52.0014 97.4612 52.0014C97.1999 52.0014 96.9852 52.0994 96.8172 52.2954C96.6586 52.4914 96.5792 52.7341 96.5792 53.0234C96.5792 53.3127 96.6632 53.5601 96.8312 53.7654C96.9992 53.9614 97.2186 54.0594 97.4892 54.0594ZM101.529 58.8894L105.911 50.9514H101.305V49.0894H108.361V50.7134L103.965 58.8894H101.529ZM110.197 58.8894L114.579 50.9514H109.973V49.0894H117.029V50.7134L112.633 58.8894H110.197ZM121.962 59.0294C120.861 59.0294 119.955 58.7681 119.246 58.2454C118.537 57.7227 118.182 57.0321 118.182 56.1734C118.182 55.0814 118.709 54.2927 119.764 53.8074C118.933 53.3034 118.518 52.5801 118.518 51.6374C118.518 50.8721 118.835 50.2327 119.47 49.7194C120.114 49.2061 120.945 48.9494 121.962 48.9494C122.989 48.9494 123.819 49.2061 124.454 49.7194C125.089 50.2327 125.406 50.8814 125.406 51.6654C125.406 52.5894 124.991 53.3034 124.16 53.8074C124.692 54.0874 125.089 54.4047 125.35 54.7594C125.611 55.1141 125.742 55.5761 125.742 56.1454C125.742 57.0321 125.387 57.7367 124.678 58.2594C123.978 58.7727 123.073 59.0294 121.962 59.0294ZM120.94 52.7574C121.201 52.9814 121.542 53.0934 121.962 53.0934C122.382 53.0934 122.718 52.9814 122.97 52.7574C123.231 52.5334 123.362 52.2394 123.362 51.8754C123.362 51.5581 123.231 51.2874 122.97 51.0634C122.718 50.8394 122.382 50.7274 121.962 50.7274C121.533 50.7274 121.192 50.8394 120.94 51.0634C120.688 51.2874 120.562 51.5627 120.562 51.8894C120.562 52.2347 120.688 52.5241 120.94 52.7574ZM121.962 57.2514C122.485 57.2514 122.895 57.1347 123.194 56.9014C123.502 56.6681 123.656 56.3694 123.656 56.0054C123.656 55.6321 123.497 55.3381 123.18 55.1234C122.872 54.9087 122.466 54.8014 121.962 54.8014C121.458 54.8014 121.047 54.9134 120.73 55.1374C120.422 55.3521 120.268 55.6507 120.268 56.0334C120.268 56.3787 120.422 56.6681 120.73 56.9014C121.038 57.1347 121.449 57.2514 121.962 57.2514ZM127.056 58.8894V57.1814L130.318 54.5074C130.962 53.9754 131.406 53.5507 131.648 53.2334C131.891 52.9067 132.012 52.5474 132.012 52.1554C132.012 51.7541 131.891 51.4414 131.648 51.2174C131.406 50.9934 131.088 50.8814 130.696 50.8814C130.332 50.8814 130.001 50.9841 129.702 51.1894C129.413 51.3854 129.077 51.7214 128.694 52.1974L127.182 50.9794C127.696 50.2794 128.223 49.7661 128.764 49.4394C129.315 49.1127 130.006 48.9494 130.836 48.9494C131.854 48.9494 132.67 49.2294 133.286 49.7894C133.902 50.3401 134.21 51.0774 134.21 52.0014C134.21 52.5334 134.108 53.0141 133.902 53.4434C133.697 53.8634 133.431 54.2367 133.104 54.5634C132.778 54.8807 132.288 55.2914 131.634 55.7954L130.038 57.0274H134.308V58.8894H127.056ZM139.447 59.0574C137.851 59.0574 136.577 58.4927 135.625 57.3634L137.109 55.9494C137.809 56.7334 138.598 57.1254 139.475 57.1254C139.886 57.1254 140.217 57.0181 140.469 56.8034C140.73 56.5794 140.861 56.2807 140.861 55.9074C140.861 55.5061 140.693 55.1981 140.357 54.9834C140.021 54.7687 139.55 54.6614 138.943 54.6614H138.047L137.711 53.2894L140.049 50.9374H136.199V49.0894H142.821V50.7134L140.343 53.0794C142.098 53.3781 142.975 54.3021 142.975 55.8514C142.975 56.7941 142.653 57.5641 142.009 58.1614C141.374 58.7587 140.52 59.0574 139.447 59.0574ZM146.28 58.8894V51.2034L144.572 51.6234L144.124 49.8594L146.938 49.0194H148.408V58.8894H146.28Z" fill="#C53D28"/>
</svg>
