<svg width="36" height="40" viewBox="0 0 36 40" fill="none" xmlns="http://www.w3.org/2000/svg">
<path d="M2.00007 40H34.0001C34.3548 40.0015 34.6951 39.8604 34.9448 39.6084C35.1944 39.3564 35.3322 39.0147 35.3274 38.66V35.9673C35.1061 31.476 32.6607 30.722 32.5621 30.694L24.0001 28.1687V24.4353C24.8754 23.6271 25.4165 22.5205 25.5167 21.3333H27.3334C28.438 21.3333 29.3334 20.4379 29.3334 19.3333V15.3333C29.3299 14.4888 28.7963 13.7375 28.0001 13.456V9.33333C28.0001 4.01267 23.7014 0 18.0001 0C12.2987 0 8.00007 4.01267 8.00007 9.33333V13.456C7.20384 13.7375 6.67024 14.4888 6.66674 15.3333V19.3333C6.67024 20.1779 7.20384 20.9292 8.00007 21.2107V22C8.00007 23.4728 9.19398 24.6667 10.6667 24.6667H12.0001V28.1687L3.44341 30.6927C3.33941 30.722 0.895407 31.476 0.673407 36V38.6487C0.665678 39.0051 0.802162 39.3496 1.05192 39.604C1.30168 39.8584 1.64356 40.0012 2.00007 40ZM9.33341 10.7333C10.1796 6.6669 13.8507 3.81477 18.0001 4C22.1453 3.82798 25.8088 6.67424 26.6667 10.7333V13.3333H25.8427C25.1761 10.5233 23.8881 9.66067 23.7407 9.57067C21.8854 8.45733 16.0787 8.64133 13.9034 8.78067C13.2719 8.80437 12.6715 9.06055 12.2174 9.5C11.24 10.5913 10.5495 11.9087 10.2081 13.3333H9.33341V10.7333ZM13.3334 25.8533C14.4241 27.2667 14.9374 28.6667 16.9481 28.6667C19.9701 28.6667 20.5127 28.944 22.0847 26.658C22.2614 26.4013 22.4534 26.1287 22.6674 25.85V28.5613C21.5954 31.398 14.3827 31.374 13.3341 28.5613L13.3334 25.8533ZM22.8134 23.728C20.7334 25.5953 20.6727 27.3333 19.0514 27.3333C16.1721 27.3333 16.1914 27.6133 15.0141 25.9027C14.7601 25.5333 14.4601 25.11 14.0881 24.6667H15.5187C15.755 25.0778 16.1925 25.3319 16.6667 25.3333H19.3334C20.0698 25.3333 20.6667 24.7364 20.6667 24V22.6667C20.6667 21.9303 20.0698 21.3333 19.3334 21.3333H16.6667C15.9304 21.3333 15.3334 21.9303 15.3334 22.6667V23.3333H12.8001C11.7334 22.174 11.7601 21.1493 11.8067 19.8867C11.891 18.9119 11.8265 17.93 11.6154 16.9747C11.3574 15.6287 11.1954 14.708 11.5154 13.5993C11.8016 12.4296 12.3668 11.3465 13.1627 10.4427C13.3872 10.2351 13.6797 10.1166 13.9854 10.1093C16.1534 9.97 21.0681 9.80533 23.0587 10.716C23.8507 11.3307 24.8214 13.462 24.6621 15.158C24.5087 16.7667 24.1707 17.558 24.1707 18.8247C24.1694 20.8967 24.5827 22.1333 22.8127 23.7247L22.8134 23.728ZM16.6667 24V22.6667H19.3334V24H16.6667ZM28.0001 19.3333C28.0001 19.7015 27.7016 20 27.3334 20H25.5334C25.4314 17.142 25.7447 17.8667 25.9881 15.2873C26.0034 15.0808 26.0074 14.8736 26.0001 14.6667H27.3334C27.7016 14.6667 28.0001 14.9651 28.0001 15.3333V19.3333ZM26.2161 6.656C24.7867 4.66667 22.2854 2.66667 18.0001 2.66667C13.7147 2.66667 11.2134 4.66667 9.78407 6.656C12.2667 -0.463333 23.7334 -0.453333 26.2161 6.656ZM8.00007 15.3333C8.00007 14.9651 8.29855 14.6667 8.66674 14.6667H10.0087C10.0182 15.5273 10.1172 16.3845 10.3041 17.2247C10.5036 18.1355 10.5585 19.0721 10.4667 20H8.66674C8.29855 20 8.00007 19.7015 8.00007 19.3333V15.3333ZM9.33341 22V21.3333H10.4834C10.5391 22.0408 10.7589 22.7256 11.1254 23.3333H10.6667C9.93036 23.3333 9.33341 22.7364 9.33341 22ZM3.81674 31.9727L12.2994 29.47C12.8274 30.4 14.2741 32 18.0001 32C21.7261 32 23.1727 30.4 23.7007 29.4667L32.1747 31.9667C32.2414 31.9893 33.8267 32.5667 33.9967 35.9967V38.6667H2.00674V36.0327C2.17741 32.5667 3.75874 31.9927 3.81674 31.9727Z" fill="#C53D28"/>
</svg>
