<svg width="38" height="38" viewBox="0 0 38 38" fill="none" xmlns="http://www.w3.org/2000/svg">
<path d="M36.5466 15.2244L35.7184 14.3475L32.8115 6.51201C32.3162 5.18851 31.0496 4.31159 29.6368 4.30347H8.87479C7.46197 4.30347 6.1953 5.18851 5.7 6.51201L2.83376 14.25L1.64017 15.3543C0.600855 16.2394 0 17.5385 0 18.9026V30.3189C0.00811966 32.1864 1.5265 33.6966 3.39402 33.6966H5.53761C7.40513 33.6966 8.9235 32.1864 8.93162 30.3189V28.6624H29.0684V30.3189C29.0765 32.1864 30.5949 33.6966 32.4624 33.6966H34.606C36.4735 33.6966 37.9919 32.1864 38 30.3189V18.6022C37.9919 17.3274 37.4722 16.1095 36.5466 15.2244ZM7.2265 7.06415C7.48633 6.37398 8.14402 5.9274 8.87479 5.9274H29.6449C30.3756 5.9274 31.0333 6.3821 31.2932 7.06415L33.8265 13.8847H31.9346C31.488 10.8398 28.6543 8.7368 25.6094 9.1915C23.1816 9.54877 21.2735 11.4569 20.9162 13.8847H4.69316L7.2265 7.06415ZM30.2782 13.8847H22.5564C23.003 11.7492 25.0979 10.3851 27.2333 10.8317C28.7598 11.1565 29.9534 12.35 30.2782 13.8847ZM7.30769 30.3189C7.29957 31.2932 6.51197 32.0727 5.53761 32.0727H3.39402C2.41966 32.0727 1.63205 31.2932 1.62393 30.3189V28.1915C2.11111 28.5082 2.75256 28.6624 3.39402 28.6624H7.30769V30.3189ZM36.3761 30.3189C36.368 31.2932 35.5803 32.0727 34.606 32.0727H32.4624C31.488 32.0727 30.7004 31.2851 30.6923 30.3189V28.6624H34.606C35.2474 28.6624 35.8889 28.5082 36.3761 28.1915V30.3189ZM34.606 27.0385H3.39402C2.42778 27.0466 1.63205 26.2753 1.62393 25.3009V18.9026C1.62393 18.0095 2.02179 17.1569 2.70385 16.5804C2.71197 16.5723 2.72821 16.556 2.73633 16.5479L3.8406 15.5086H34.5897L35.3692 16.3449C35.3774 16.3612 35.4017 16.3693 35.4098 16.3855C36.0188 16.962 36.368 17.7659 36.368 18.6022V25.3009H36.3761C36.368 26.2671 35.5722 27.0466 34.606 27.0385Z" fill="#C53D28"/>
<path d="M10.7179 18.7565H4.62813C4.18155 18.7565 3.81616 19.1219 3.81616 19.5684V23.7907C3.81616 24.2372 4.18155 24.6026 4.62813 24.6026H10.7179C11.1645 24.6026 11.5298 24.2372 11.5298 23.7907V19.5684C11.5298 19.1219 11.1645 18.7565 10.7179 18.7565ZM9.90591 22.9787H5.44009V20.3804H9.90591V22.9787Z" fill="#C53D28"/>
<path d="M33.3717 18.7565H27.2819C26.8354 18.7565 26.47 19.1219 26.47 19.5684V23.7907C26.47 24.2372 26.8354 24.6026 27.2819 24.6026H33.3717C33.8183 24.6026 34.1836 24.2372 34.1836 23.7907V19.5684C34.1836 19.1219 33.8183 18.7565 33.3717 18.7565ZM32.5597 22.9787H28.0939V20.3804H32.5597V22.9787Z" fill="#C53D28"/>
<path d="M22.9219 22.1666H15.0783C14.6317 22.1666 14.2664 22.532 14.2664 22.9786C14.2664 23.4252 14.6317 23.7906 15.0783 23.7906H22.9219C23.3685 23.7906 23.7339 23.4252 23.7339 22.9786C23.7339 22.532 23.3685 22.1666 22.9219 22.1666Z" fill="#C53D28"/>
<path d="M22.9219 19.6495H15.0783C14.6317 19.6495 14.2664 20.0149 14.2664 20.4615C14.2664 20.9081 14.6317 21.2735 15.0783 21.2735H22.9219C23.3685 21.2735 23.7339 20.9081 23.7339 20.4615C23.7339 20.0149 23.3685 19.6495 22.9219 19.6495Z" fill="#C53D28"/>
</svg>
