<svg width="36" height="36" viewBox="0 0 36 36" fill="none" xmlns="http://www.w3.org/2000/svg">
<path d="M13.812 15.3675C13.7475 16.176 13.332 17.0145 12.729 17.556C12.5235 17.7405 12.435 18.0255 12.5025 18.2955L12.8085 19.5209C12.876 19.7895 13.0845 19.9994 13.3545 20.0669L16.041 20.7374C16.4115 20.8289 16.7565 21.0074 17.067 21.2684C17.385 21.5339 17.8575 21.4934 18.1245 21.1739C18.3885 20.8559 18.3465 20.3834 18.03 20.1164C17.544 19.7099 16.998 19.4294 16.4055 19.2794L14.154 18.7184L14.0595 18.3404C14.643 17.6954 15.0585 16.8719 15.2295 16.0169C15.63 15.8099 15.9225 15.4154 15.981 14.9429L16.143 13.6409C16.1925 13.2464 16.071 12.8459 15.8085 12.5474C15.7275 12.4544 15.6345 12.3734 15.534 12.3059L15.5731 11.5094L15.7095 11.3714C16.0965 10.9619 16.62 10.0829 15.792 8.81838C15.399 8.2184 14.5905 7.49988 12.966 7.49988C12.4875 7.49988 11.409 7.49988 10.362 8.15835C7.275 8.26635 6.91197 9.92988 6.91197 11.1854C6.91197 11.4329 6.95697 11.8964 6.99895 12.2834C6.88793 12.3539 6.78745 12.4409 6.69745 12.5414C6.43047 12.8429 6.30743 13.2448 6.35848 13.6408L6.52048 14.9458C6.582 15.4349 6.8925 15.8399 7.34995 16.0393C7.51793 16.8583 7.91097 17.6489 8.45843 18.2789L8.34895 18.7199L6.09748 19.2809C4.27498 19.7369 3 21.3689 3 23.2499C3 23.6639 3.33602 23.9999 3.75002 23.9999H14.3355C14.7495 23.9999 15.0855 23.6639 15.0855 23.2499C15.0855 22.8359 14.7496 22.5 14.3356 22.5L4.61255 22.4985C4.86905 21.642 5.56057 20.961 6.46352 20.736L9.1515 20.0655C9.42002 19.998 9.62997 19.7895 9.69747 19.5195L10.017 18.24C10.083 17.9776 10.0005 17.6986 9.80097 17.5125C9.21745 16.962 8.832 16.1595 8.76745 15.3645C8.73595 14.9745 8.40295 14.7601 8.01145 14.7601L7.81795 13.5645C8.03395 13.5645 8.23793 13.4715 8.38045 13.3111C8.52297 13.1476 8.58893 12.9345 8.56193 12.7201C8.5049 12.2671 8.41343 11.4496 8.41343 11.1841C8.41343 10.4086 8.41343 9.67514 10.6064 9.65264C10.7594 9.65116 10.9094 9.60314 11.0354 9.51166C11.7495 9 12.5716 9 12.966 9C14.118 9 14.4315 9.48002 14.541 9.64047C14.8455 10.1085 14.721 10.2404 14.637 10.3304L14.3115 10.6559C14.1795 10.7879 14.1015 10.9634 14.0925 11.1495L14.0115 12.783C14.0025 12.9869 14.0265 13.128 14.1675 13.278C14.307 13.4265 14.4525 13.4549 14.6565 13.458L14.559 14.676C14.1675 14.676 13.8435 14.976 13.812 15.3675Z" fill="#C53D28"/>
<path d="M21.75 12H26.25C26.664 12 27 11.664 27 11.25C27 10.836 26.664 10.5 26.25 10.5H21.75C21.336 10.5 21 10.836 21 11.25C21 11.664 21.336 12 21.75 12Z" fill="#C53D28"/>
<path d="M32.25 0H3.74998C1.68152 0 0 1.68152 0 3.74998V23.25C0 25.3185 1.68152 27 3.74998 27H14.847C15.2625 27 15.597 26.664 15.597 26.25C15.597 25.836 15.261 25.5 14.847 25.5H3.74998C2.50945 25.5 1.49998 24.4905 1.49998 23.25V5.99998H34.5V20.715C34.5 21.129 34.836 21.465 35.25 21.465C35.664 21.465 36 21.129 36 20.715V3.74998C36 1.68152 34.3185 0 32.25 0ZM34.5 4.5H1.49998V3.74998C1.49998 2.50945 2.50945 1.49998 3.74998 1.49998H32.25C33.4905 1.49998 34.5 2.50945 34.5 3.74998V4.5H34.5Z" fill="#C53D28"/>
<path d="M32.25 12C32.664 12 33.0001 11.664 33.0001 11.25C33.0001 10.836 32.664 10.5 32.25 10.5H29.25C28.836 10.5 28.5 10.836 28.5 11.25C28.5 11.664 28.836 12 29.25 12H32.25Z" fill="#C53D28"/>
<path d="M36 24C36 23.373 35.5334 22.935 34.866 22.935C34.4894 22.935 33.8445 23.1285 33.2895 23.448C32.556 21.9 31.356 20.5275 30.4965 20.1C29.928 19.8165 27.9914 19.5 26.25 19.5C24.5085 19.5 22.572 19.8165 22.002 20.1C21.1455 20.5275 19.9455 21.9 19.2105 23.448C18.654 23.1285 18.009 22.935 17.6325 22.935C17.3475 22.935 17.1029 23.0085 16.9065 23.157C16.6455 23.3535 16.5 23.6534 16.5 23.9999C16.5 25.1699 17.4075 25.9814 17.5125 26.0699C17.5935 26.1389 17.6865 26.1824 17.7825 26.2125C17.424 27.207 17.25 28.3109 17.25 29.25C17.25 30.3705 17.3535 32.2815 18 33.258V34.5C18 35.3415 18.6585 36 19.5 36H21C21.8415 36 22.5 35.3415 22.5 34.5V33.9915C23.406 34.218 24.819 34.5 26.25 34.5C27.6809 34.5 29.0939 34.218 29.9999 33.9915V34.5C29.9999 35.3415 30.6584 36 31.4999 36H32.9999C33.8414 36 34.4999 35.3415 34.4999 34.5V33.258C35.1464 32.2815 35.2499 30.3705 35.2499 29.25C35.2499 28.3109 35.0759 27.207 34.7174 26.2125C34.8134 26.184 34.9064 26.1405 34.9874 26.0699C35.0924 25.9815 36 25.17 36 24ZM22.6695 21.444C22.95 21.315 24.5505 21 26.25 21C27.9495 21 29.55 21.315 29.826 21.441C30.3945 21.726 31.7146 23.2215 32.2395 24.852C30.8295 25.05 27.4965 25.5 26.25 25.5C25.0035 25.5 21.669 25.05 20.259 24.852C20.784 23.2215 22.104 21.726 22.6695 21.444ZM18.4335 24.8775C18.3854 24.8295 18.312 24.7515 18.225 24.624C18.324 24.6705 18.4185 24.723 18.507 24.7755C18.483 24.81 18.4575 24.8415 18.4335 24.8775ZM21 34.5H19.5V33.75H21V34.5ZM32.9999 34.5H31.5V33.75H32.9999V34.5ZM33.345 32.25H30.7499C30.6704 32.25 30.591 32.2635 30.5129 32.2875C30.4919 32.295 28.3439 33 26.25 33C24.156 33 22.0079 32.295 21.987 32.289C21.9615 32.2815 21.936 32.2875 21.9105 32.283C21.858 32.271 21.807 32.25 21.75 32.25H19.152C18.9555 31.8015 18.7485 30.7681 18.7485 29.2516C18.7485 29.0131 18.7665 28.7596 18.7935 28.5031C19.8015 28.5316 20.9999 28.8721 20.9999 29.2501C20.9999 29.6641 21.336 30.0001 21.75 30.0001C22.164 30.0001 22.5 29.664 22.5 29.25C22.5 27.417 20.025 27.0795 19.0875 27.0165C19.1715 26.742 19.272 26.4841 19.386 26.2411C19.3875 26.2411 19.389 26.2425 19.3905 26.2425C19.6005 26.274 24.552 27 26.25 27C27.9479 27 32.8995 26.274 33.1094 26.2425C33.1109 26.2425 33.1109 26.2411 33.1124 26.2411C33.2264 26.4841 33.327 26.742 33.4109 27.0165C32.4734 27.0795 29.9999 27.4185 29.9999 29.25C29.9999 29.664 30.3359 30 30.7499 30C31.1639 30 31.5 29.664 31.5 29.25C31.5 28.8645 32.691 28.5345 33.705 28.503C33.732 28.7595 33.75 29.013 33.75 29.25C33.75 30.768 33.5415 31.8015 33.345 32.25ZM34.065 24.876C34.041 24.8415 34.0169 24.8085 33.9915 24.7755C34.08 24.723 34.176 24.669 34.2735 24.6225C34.2 24.7335 34.1249 24.816 34.065 24.876Z" fill="#C53D28"/>
<path d="M21.75 16.5H32.25C32.664 16.5 33 16.164 33 15.75C33 15.336 32.664 15 32.25 15H21.75C21.336 15 21 15.336 21 15.75C21 16.164 21.336 16.5 21.75 16.5Z" fill="#C53D28"/>
<path d="M27.75 28.5H24.75C24.336 28.5 24 28.836 24 29.25C24 29.664 24.336 30 24.75 30H27.75C28.164 30 28.5001 29.664 28.5001 29.25C28.5 28.836 28.164 28.5 27.75 28.5Z" fill="#C53D28"/>
</svg>
