<svg width="39" height="39" viewBox="0 0 39 39" fill="none" xmlns="http://www.w3.org/2000/svg">
<path d="M37.9949 12.2733C36.6585 10.9368 34.4838 10.9369 33.1469 12.2737C32.7358 12.6852 30.1105 15.3126 29.7095 15.714V6.6594C29.7095 5.74382 29.3529 4.88307 28.7054 4.23569L25.4739 1.00395C24.8265 0.356484 23.9657 0 23.0501 0H3.43018C1.54012 0 0.00244141 1.53768 0.00244141 3.42773V35.5723C0.00244141 37.4623 1.54012 39 3.43018 39H26.2817C28.1718 39 29.7095 37.4623 29.7095 35.5723V25.4133L37.9948 17.1209C39.3345 15.7814 39.3348 13.6131 37.9949 12.2733ZM22.8541 2.28516C23.0699 2.28516 23.4859 2.24776 23.858 2.61978L27.0897 5.85152C27.4523 6.21418 27.4244 6.61157 27.4244 6.85547H22.8541V2.28516ZM27.4243 35.5723C27.4243 36.2023 26.9118 36.7148 26.2817 36.7148H3.43018C2.80016 36.7148 2.2876 36.2023 2.2876 35.5723V3.42773C2.2876 2.79772 2.80016 2.28516 3.43018 2.28516H20.5688V7.99805C20.5688 8.62906 21.0804 9.14062 21.7114 9.14062H27.4243V18.0012C27.4243 18.0012 24.0534 21.375 24.0532 21.375L22.4382 22.9902C22.3128 23.1156 22.2182 23.2685 22.1621 23.4368L20.5462 28.2844C20.4093 28.6949 20.5162 29.1476 20.8223 29.4536C21.1287 29.76 21.5815 29.8664 21.9915 29.7297L26.8391 28.1138C27.0073 28.0578 27.1603 27.9632 27.2857 27.8378L27.4243 27.6991V35.5723ZM24.8619 23.7981L26.4777 25.414L25.8605 26.0312L23.4368 26.8391L24.2447 24.4153L24.8619 23.7981ZM28.0933 23.7978L26.4774 22.1819C27.3379 21.3208 31.1593 17.4961 31.9698 16.6849L33.5856 18.3008L28.0933 23.7978ZM36.3787 15.5054L35.2008 16.6842L33.585 15.0684L34.7632 13.8892C35.209 13.4437 35.9337 13.4437 36.3792 13.8892C36.8245 14.3348 36.8269 15.0571 36.3787 15.5054Z" fill="#C53D28"/>
<path d="M21.7102 11.4258H5.71411C5.0831 11.4258 4.57153 11.9374 4.57153 12.5684C4.57153 13.1994 5.0831 13.7109 5.71411 13.7109H21.7102C22.3412 13.7109 22.8528 13.1994 22.8528 12.5684C22.8528 11.9374 22.3412 11.4258 21.7102 11.4258Z" fill="#C53D28"/>
<path d="M17.1399 15.9961H5.71411C5.0831 15.9961 4.57153 16.5077 4.57153 17.1387C4.57153 17.7697 5.0831 18.2812 5.71411 18.2812H17.1399C17.7709 18.2812 18.2825 17.7697 18.2825 17.1387C18.2825 16.5077 17.7709 15.9961 17.1399 15.9961Z" fill="#C53D28"/>
<path d="M17.1399 20.5664H5.71411C5.0831 20.5664 4.57153 21.078 4.57153 21.709C4.57153 22.34 5.0831 22.8516 5.71411 22.8516H17.1399C17.7709 22.8516 18.2825 22.34 18.2825 21.709C18.2825 21.078 17.7709 20.5664 17.1399 20.5664Z" fill="#C53D28"/>
<path d="M17.1399 25.1367H5.71411C5.0831 25.1367 4.57153 25.6483 4.57153 26.2793C4.57153 26.9103 5.0831 27.4219 5.71411 27.4219H17.1399C17.7709 27.4219 18.2825 26.9103 18.2825 26.2793C18.2825 25.6483 17.7709 25.1367 17.1399 25.1367Z" fill="#C53D28"/>
<path d="M21.7102 32.1445H14.8547C14.2237 32.1445 13.7122 32.6561 13.7122 33.2871C13.7122 33.9181 14.2237 34.4297 14.8547 34.4297H21.7102C22.3412 34.4297 22.8528 33.9181 22.8528 33.2871C22.8528 32.6561 22.3412 32.1445 21.7102 32.1445Z" fill="#C53D28"/>
</svg>
