<svg width="38" height="38" viewBox="0 0 38 38" fill="none" xmlns="http://www.w3.org/2000/svg">
<g clip-path="url(#clip0)">
<path d="M6.68031 17.3967C4.75945 17.3967 3.19678 18.9595 3.19678 20.8803C3.19678 22.8011 4.75953 24.3638 6.68031 24.3638C8.60109 24.3638 10.1638 22.801 10.1638 20.8803C10.1638 18.9594 8.60116 17.3967 6.68031 17.3967ZM6.68031 18.5101C7.98722 18.5101 9.05041 19.5733 9.05041 20.8802C9.05041 22.1871 7.98722 23.2504 6.68031 23.2504C5.37339 23.2504 4.31013 22.1871 4.31013 20.8802C4.31013 19.5733 5.37339 18.5101 6.68031 18.5101Z" fill="#C53D28"/>
<path d="M0.602125 24.2559C0.681168 24.5531 0.986207 24.7298 1.28323 24.6507C1.58033 24.5716 1.75712 24.2667 1.67807 23.9696C0.8587 20.8902 0.932176 17.5641 1.88492 14.604C2.89816 11.4557 4.82146 8.88883 7.44688 7.1809C8.82497 6.28479 10.3083 5.6451 11.8577 5.2786C11.9076 5.28959 11.9575 5.30079 12.0074 5.3123C14.2959 5.83962 16.4641 6.85597 18.3976 8.18048C19.535 8.95963 20.5968 9.84951 21.562 10.834H16.7427C16.4739 10.834 16.2058 10.8543 15.9394 10.8901C15.1255 10.9997 14.3386 11.2944 13.6464 11.7351C13.5821 11.7264 13.2799 11.7042 13.1935 11.7042C11.3533 11.7042 9.85624 13.2013 9.85624 15.0415C9.85624 15.0465 9.85661 15.0514 9.85668 15.0563C9.86025 16.0251 10.301 16.9632 11.0393 17.5895C11.0395 17.591 11.048 17.6351 11.0518 17.6558C11.1037 17.9434 11.175 18.2265 11.2703 18.503C11.5558 19.331 12.032 20.0914 12.6515 20.7107L14.9033 22.9617C15.982 24.0415 17.468 24.6566 18.9945 24.6566H27.98C28.0887 25.3879 28.1736 26.1225 28.2326 26.8594C28.2916 27.5944 28.3256 28.331 28.3375 29.0682H4.05448C3.38592 28.1311 2.81822 27.1017 2.36489 26.0041C2.24748 25.7199 1.92203 25.5847 1.63785 25.702C1.35366 25.8194 1.21844 26.1449 1.33578 26.4291C1.74747 27.426 2.24911 28.3701 2.82921 29.2477C1.87661 29.6244 1.2007 30.5538 1.2007 31.6387C1.2007 33.0561 2.35384 34.2092 3.77127 34.2092H35.4293C36.8468 34.2092 37.9999 33.0561 37.9999 31.6387C37.9999 30.4108 37.1343 29.3819 35.9815 29.1284C35.9603 27.5904 35.8416 26.0685 35.6261 24.5897C36.4334 24.3701 37.0289 23.6312 37.0289 22.7553C37.0289 21.7071 36.1761 20.8542 35.1277 20.8542H34.8521C34.208 18.4903 33.2937 16.2835 32.1307 14.2891C32.1192 14.2692 32.1065 14.2486 32.0948 14.2286C32.5439 13.8769 32.8196 13.3344 32.8196 12.735C32.8196 11.6867 31.9667 10.8338 30.9184 10.8338H29.615C28.3784 9.44406 26.9752 8.21388 25.4401 7.17556C25.1855 7.0033 24.8394 7.0701 24.6671 7.32481C24.4948 7.57946 24.5616 7.92554 24.8164 8.0978C25.9963 8.89588 27.0947 9.81322 28.0934 10.8338H23.0857C21.9413 9.54885 20.6458 8.39831 19.2381 7.40913C17.7832 6.38691 16.2033 5.53718 14.5366 4.91508C17.29 4.80865 20.1378 5.49606 22.9 6.94934C23.172 7.09251 23.5087 6.98801 23.6518 6.71592C23.795 6.44384 23.6905 6.10718 23.4184 5.96409C19.5519 3.9299 15.511 3.30765 11.7326 4.16473C10.0106 4.55534 8.36444 5.25619 6.83977 6.2476C3.99741 8.09669 1.91758 10.8683 0.825079 14.2629C-0.192238 17.4238 -0.271429 20.9727 0.602125 24.2559ZM16.7419 13.5229C16.5846 13.5229 16.4276 13.5356 16.2722 13.5594C16.2453 13.5636 16.2183 13.5674 16.1915 13.5722C16.1436 13.4813 16.0946 13.3911 16.0411 13.3034C15.7882 12.8885 15.4497 12.5343 15.0485 12.2662C15.0616 12.2611 15.0749 12.2564 15.0881 12.2513C15.6087 12.0534 16.1854 11.9474 16.7428 11.9474H30.9187C31.3531 11.9474 31.7065 12.3008 31.7065 12.7351C31.7065 13.0629 31.5083 13.3503 31.2078 13.4677C31.2022 13.4679 16.7419 13.5229 16.7419 13.5229ZM15.4173 15.0416C15.4173 16.2393 14.3822 17.2387 13.1983 17.2652C13.1967 17.2652 13.1951 17.2654 13.1935 17.2654C12.0039 17.2646 10.9785 16.2367 10.9698 15.0491C10.9698 15.0466 10.9696 15.0441 10.9696 15.0416C10.9696 13.8153 11.9672 12.8177 13.1934 12.8177C14.3829 12.8177 15.4173 13.8498 15.4173 15.0416ZM31.0105 14.583C31.0649 14.6729 31.1178 14.7619 31.1685 14.8493C32.2349 16.678 33.0838 18.6949 33.6969 20.8544H18.9944C18.471 20.8544 17.9621 20.644 17.5918 20.2738C17.5918 20.2738 15.2698 17.948 15.2367 17.9096C15.1932 17.866 15.1579 17.8141 15.1227 17.7638C15.1359 17.7545 15.1483 17.7442 15.1614 17.7345C15.3605 17.5862 15.5464 17.4206 15.7082 17.2318C15.7091 17.2308 15.7099 17.2298 15.7108 17.2288C16.0953 16.7868 16.3654 16.2433 16.4751 15.6441C16.5334 15.3234 16.5456 14.9938 16.5094 14.6699C16.5088 14.6639 16.5085 14.6578 16.5079 14.6518C16.5207 14.6503 16.5721 14.6443 16.5851 14.6432L31.0105 14.583ZM29.1067 24.6566H34.5116C34.7252 26.0924 34.8449 27.5719 34.8687 29.0682H29.452C29.4403 28.3128 29.4053 27.5611 29.3453 26.8078C29.2889 26.0969 29.2099 25.3782 29.1095 24.6776C29.1085 24.6706 29.1076 24.6636 29.1067 24.6566ZM3.77134 30.1817H35.4294C36.2329 30.1817 36.8866 30.8353 36.8866 31.6389C36.8866 32.4424 36.233 33.0961 35.4294 33.0961H3.77134C2.96785 33.0961 2.31413 32.4424 2.31413 31.6389C2.31413 30.8353 2.96785 30.1817 3.77134 30.1817ZM16.0346 22.4867C15.5073 22.0536 13.4386 19.9233 13.4386 19.9233C13.027 19.5114 12.69 19.0215 12.4584 18.4895C12.4313 18.427 12.3756 18.2848 12.3728 18.2771C12.638 18.3442 12.9183 18.3784 13.1917 18.3786C13.4864 18.3787 13.7829 18.339 14.0672 18.2618C14.0814 18.258 14.0958 18.2553 14.1099 18.2512C14.2348 18.4531 14.3852 18.6415 14.5529 18.8091L16.8047 21.0609C17.3894 21.6456 18.1671 21.9677 18.9945 21.9677H35.1279C35.5623 21.9677 35.9156 22.3211 35.9156 22.7554C35.9156 23.1897 35.5622 23.5432 35.1279 23.5432H18.9944C18.6086 23.5432 18.2249 23.4947 17.8532 23.401C17.1907 23.2341 16.5661 22.9234 16.0346 22.4867Z" fill="#C53D28"/>
</g>
<defs>
<clipPath id="clip0">
<rect width="38" height="38" fill="white"/>
</clipPath>
</defs>
</svg>
