<svg width="39" height="39" viewBox="0 0 39 39" fill="none" xmlns="http://www.w3.org/2000/svg">
<path d="M28.2784 8.72001C28.2784 6.82859 26.7406 5.28992 24.8503 5.28992C22.9602 5.28992 21.4224 6.82867 21.4224 8.72001C21.4224 10.6114 22.9601 12.1501 24.8503 12.1501C26.7406 12.1502 28.2784 10.6114 28.2784 8.72001ZM24.8503 9.86503C24.2202 9.86503 23.7075 9.3514 23.7075 8.72009C23.7075 8.08878 24.2202 7.57515 24.8503 7.57515C25.4805 7.57515 25.9932 8.08878 25.9932 8.72009C25.9932 9.3514 25.4806 9.86503 24.8503 9.86503Z" fill="#C53D28"/>
<path d="M34.696 26.9166H13.5112C12.4387 26.9166 11.5662 26.0428 11.5662 24.9687C11.5662 23.8946 12.4387 23.0207 13.5112 23.0207H24.8503C25.2663 23.0207 25.5845 22.8183 25.8352 22.4738L31.8432 14.2089C36.268 8.4579 32.1839 0 24.8504 0C17.6643 0 13.4213 8.2127 17.8179 14.1585L22.6972 20.7356H13.5112C11.1787 20.7356 9.28109 22.6346 9.28109 24.9687C9.28109 27.3028 11.1787 29.2018 13.5112 29.2018H34.696C35.8092 29.2018 36.7148 30.1088 36.7148 31.2236C36.7148 32.3385 35.8092 33.2454 34.696 33.2454H9.0742C8.56492 31.2532 6.75606 29.776 4.60878 29.776C2.06753 29.776 0 31.8449 0 34.388C0 36.9311 2.06753 39 4.60878 39C6.75606 39 8.56492 37.5227 9.0742 35.5306H34.696C37.0692 35.5306 39 33.5985 39 31.2236C39 28.8487 37.0692 26.9166 34.696 26.9166ZM19.6464 12.7863C16.405 8.52279 19.4305 2.28516 24.8504 2.28516C30.3051 2.28516 33.3105 8.58663 30.0168 12.8352C30.0072 12.8475 24.908 19.8629 24.9017 19.8716C24.8959 19.8639 19.6523 12.7939 19.6464 12.7863ZM4.60878 36.7148C3.32757 36.7148 2.28516 35.671 2.28516 34.388C2.28516 33.1051 3.32757 32.0612 4.60878 32.0612C5.88999 32.0612 6.9324 33.1051 6.9324 34.388C6.9324 35.671 5.88999 36.7148 4.60878 36.7148Z" fill="#C53D28"/>
</svg>
