<svg width="38" height="38" viewBox="0 0 38 38" fill="none" xmlns="http://www.w3.org/2000/svg">
<g clip-path="url(#clip0)">
<path d="M24.1416 31.0836H22.0082C21.3589 31.0836 20.8306 31.6119 20.8306 32.2612V33.739C20.8306 34.8332 21.829 35.7233 23.0562 35.7233H23.0936C24.3208 35.7233 25.3192 34.8332 25.3192 33.739V32.2612C25.3192 31.6119 24.791 31.0836 24.1416 31.0836ZM24.2059 33.739C24.2059 34.2111 23.6965 34.6101 23.0936 34.6101H23.0562C22.4532 34.6101 21.9439 34.2111 21.9439 33.739C21.9703 32.324 21.8851 32.1969 22.0082 32.1969H24.1416C24.177 32.1969 24.2059 32.2257 24.2059 32.2612V33.739Z" fill="#C53D28"/>
<path d="M32.6545 35.3713L32.0288 32.2285C31.9688 31.927 31.6757 31.7309 31.3742 31.7913C31.0726 31.8513 30.877 32.1444 30.937 32.4459L31.5594 35.5725C31.5882 35.7867 31.6202 36.281 31.3657 36.5742C30.9312 37.0747 29.9971 36.8166 27.6117 36.8867V31.6402C27.6117 31.3327 27.3625 31.0835 27.055 31.0835C26.7475 31.0835 26.4984 31.3327 26.4984 31.6402V36.8867H11.5166V31.6402C11.5166 31.3327 11.2674 31.0835 10.9599 31.0835C10.6524 31.0835 10.4033 31.3327 10.4033 31.6402V36.8867H7.59186C6.68891 36.8867 6.31225 36.4902 6.43553 35.5725L8.0541 27.4436C8.40589 25.6816 10.0397 25.3978 10.1267 25.3579L15.6773 23.9894C16.5777 27.3945 21.4352 27.3666 22.3199 23.9829L27.8677 25.3578C27.9624 25.4013 29.5903 25.6877 29.9408 27.4433L30.422 29.8599C30.482 30.1614 30.7753 30.3571 31.0766 30.2971C31.3781 30.2371 31.5738 29.944 31.5138 29.6425L31.0326 27.2256C30.675 25.4343 29.3711 24.7003 28.6258 24.4221C28.2337 24.2783 26.4239 23.8657 22.4317 22.8636V22.0049C24.7917 20.771 26.3862 18.3006 26.3862 15.4628V15.36C28.2484 15.0159 29.1091 13.1321 28.0499 11.7701V7.81903C28.0499 7.77101 28.0433 6.62811 27.4706 5.34516C26.9356 4.14682 25.7916 2.59268 23.3795 1.99388C21.5489 1.53944 20.544 0.876814 20.0234 0.401071C19.4384 -0.133453 18.5562 -0.133602 17.9714 0.401071C17.4508 0.876814 16.446 1.53944 14.6153 1.99388C13.4978 2.27131 12.5512 2.77912 11.8018 3.5032C11.5806 3.7168 11.5746 4.06919 11.7882 4.29029C12.0018 4.51139 12.3543 4.51747 12.5752 4.30387C13.182 3.71769 13.9586 3.30399 14.8835 3.07451C16.9408 2.56374 18.1067 1.7857 18.7225 1.22297C18.8791 1.07958 19.1155 1.07973 19.2722 1.22297C19.8879 1.7857 21.0538 2.56374 23.1112 3.07451C26.8715 4.00796 26.9357 7.66554 26.9366 7.81918V10.9511C26.7622 10.8818 26.578 10.8282 26.3862 10.7927C26.3387 10.5539 26.6739 9.09032 25.3177 8.39066C25.3177 8.39059 25.3176 8.39059 25.3176 8.39059C19.5991 5.44172 14.5934 7.33994 12.7067 8.29299C12.0417 8.6289 11.6286 9.3014 11.6286 10.048V10.7928C11.4294 10.8296 11.2385 10.8859 11.0583 10.9589C11.0639 7.91373 10.9572 7.46129 11.3468 6.29806C11.4445 6.0066 11.2873 5.6911 10.9958 5.5935C10.7045 5.4959 10.3889 5.65302 10.2913 5.94448C9.94898 6.96625 9.94504 7.78481 9.94504 7.81918V11.7972C8.90887 13.1696 9.79497 15.0212 11.6286 15.3601C11.6385 15.4069 11.4825 18.4429 13.9552 20.803C14.4455 21.2711 14.9864 21.6614 15.5633 21.9728V22.871C9.58493 24.3453 9.85049 24.279 9.82384 24.2868C9.79208 24.3013 7.46094 24.7288 6.96233 27.2261L5.34043 35.3713C5.33843 35.3815 5.33664 35.3916 5.33523 35.402C5.12208 36.9064 5.91674 38.0001 7.59186 38.0001H30.4031C31.1987 38.0001 31.8053 37.766 32.2062 37.3043C32.6637 36.7775 32.7726 35.9619 32.6545 35.3713ZM26.3863 11.9344C27.7338 12.335 27.7272 13.8193 26.3863 14.2178V11.9344ZM11.6286 14.218C10.2844 13.8184 10.285 12.3338 11.6286 11.9345V14.218ZM21.3132 23.2625C21.2364 24.4805 20.2193 25.4347 18.9977 25.4347C17.7816 25.4347 16.7649 24.4851 16.6831 23.2728C16.6719 23.1078 16.6789 22.821 16.6768 22.4622C18.1313 22.9484 19.7707 22.9816 21.3186 22.4744C21.3163 22.857 21.3235 23.1038 21.3132 23.2625ZM12.7418 15.3656C12.7418 14.1399 12.7418 11.279 12.7418 10.0478C12.7418 9.72371 12.9207 9.43195 13.2086 9.28648C14.2494 8.76079 16.3226 7.92241 18.9521 7.92241C20.704 7.92241 22.7032 8.29484 24.8075 9.37992C25.0946 9.52807 25.273 9.81975 25.273 10.1411C25.273 11.7715 25.273 13.9044 25.273 15.4627C25.273 17.767 24.0158 20.0364 21.6192 21.1461C17.3764 23.1133 12.7418 19.8851 12.7418 15.3656Z" fill="#C53D28"/>
</g>
<defs>
<clipPath id="clip0">
<rect width="38" height="38" fill="white"/>
</clipPath>
</defs>
</svg>
