<svg width="40" height="52" viewBox="0 0 40 52" fill="none" xmlns="http://www.w3.org/2000/svg">
<path d="M10.288 15L13.888 6.54H15.592L19.192 15H17.26L16.492 13.116H12.94L12.172 15H10.288ZM13.6 11.484H15.832L14.716 8.76L13.6 11.484ZM21.6165 15V8.412L20.1525 8.772L19.7685 7.26L22.1805 6.54H23.4405V15H21.6165Z" fill="#C53D28"/>
<path d="M26.092 30V20.9H30.317C31.3657 20.9 32.1587 21.1687 32.696 21.706C33.112 22.122 33.32 22.6463 33.32 23.279C33.32 24.137 32.9213 24.7913 32.124 25.242C32.6873 25.4587 33.112 25.7447 33.398 26.1C33.684 26.4467 33.827 26.9147 33.827 27.504C33.827 28.3187 33.5237 28.9383 32.917 29.363C32.3103 29.7877 31.4783 30 30.421 30H26.092ZM28.042 24.579H29.888C30.85 24.579 31.331 24.2497 31.331 23.591C31.331 23.2877 31.2183 23.058 30.993 22.902C30.7677 22.7373 30.4427 22.655 30.018 22.655H28.042V24.579ZM28.042 28.245H30.421C31.3657 28.245 31.838 27.907 31.838 27.231C31.838 26.5723 31.344 26.243 30.356 26.243H28.042V28.245ZM36.6958 30V22.863L35.1098 23.253L34.6938 21.615L37.3068 20.835H38.6718V30H36.6958Z" fill="#C53D28"/>
<path d="M12.592 45.192C10.9493 45.192 9.57867 44.6373 8.48 43.528C7.392 42.408 6.848 41.032 6.848 39.4C6.848 37.7787 7.39733 36.408 8.496 35.288C9.59467 34.168 10.992 33.608 12.688 33.608C13.6587 33.608 14.4747 33.768 15.136 34.088C15.7973 34.3973 16.4267 34.8453 17.024 35.432L15.552 37.128C15.072 36.6907 14.6187 36.376 14.192 36.184C13.776 35.9813 13.2693 35.88 12.672 35.88C11.7333 35.88 10.9547 36.2213 10.336 36.904C9.728 37.576 9.424 38.408 9.424 39.4C9.424 40.3813 9.728 41.2133 10.336 41.896C10.9547 42.5787 11.7333 42.92 12.672 42.92C13.2693 42.92 13.7867 42.8133 14.224 42.6C14.6613 42.3867 15.1253 42.056 15.616 41.608L17.184 43.288C16.576 43.9387 15.9147 44.4187 15.2 44.728C14.496 45.0373 13.6267 45.192 12.592 45.192ZM20.6605 45V36.216L18.7085 36.696L18.1965 34.68L21.4125 33.72H23.0925V45H20.6605Z" fill="#C53D28"/>
<path d="M4.12 26.12C3.09333 26.12 2.23667 25.7733 1.55 25.08C0.87 24.38 0.53 23.52 0.53 22.5C0.53 21.4867 0.873333 20.63 1.56 19.93C2.24667 19.23 3.12 18.88 4.18 18.88C4.78667 18.88 5.29667 18.98 5.71 19.18C6.12333 19.3733 6.51667 19.6533 6.89 20.02L5.97 21.08C5.67 20.8067 5.38667 20.61 5.12 20.49C4.86 20.3633 4.54333 20.3 4.17 20.3C3.58333 20.3 3.09667 20.5133 2.71 20.94C2.33 21.36 2.14 21.88 2.14 22.5C2.14 23.1133 2.33 23.6333 2.71 24.06C3.09667 24.4867 3.58333 24.7 4.17 24.7C4.54333 24.7 4.86667 24.6333 5.14 24.5C5.41333 24.3667 5.70333 24.16 6.01 23.88L6.99 24.93C6.61 25.3367 6.19667 25.6367 5.75 25.83C5.31 26.0233 4.76667 26.12 4.12 26.12ZM9.16281 26V20.51L7.94281 20.81L7.62281 19.55L9.63281 18.95H10.6828V26H9.16281ZM12.4416 26V19H17.7216V20.37H13.9716V21.79H17.2716V23.16H13.9716V24.63H17.7716V26H12.4416Z" fill="#C53D28"/>
</svg>
