<svg width="36" height="36" viewBox="0 0 36 36" fill="none" xmlns="http://www.w3.org/2000/svg">
<g clip-path="url(#clip0)">
<path d="M18.816 14.31V16.12C18.816 16.6948 18.931 17.1771 19.1574 17.5529C19.4699 18.0714 19.983 18.3686 20.5655 18.3686C21.1363 18.3686 21.7034 18.0906 22.2514 17.543L28.2296 11.5648C29.5419 10.2522 29.5419 8.11642 28.2293 6.80383L22.2514 0.825623C21.7034 0.277679 21.1363 0 20.5655 0C19.6949 0 18.816 0.695435 18.816 2.24863V3.89246C10.3285 4.39371 3.30216 10.9072 2.25791 19.4351C2.1994 19.9113 2.47022 20.3673 2.91654 20.5439C3.04288 20.5939 3.17444 20.618 3.30435 20.618C3.63339 20.618 3.95255 20.464 4.15579 20.1863C6.95676 16.3592 11.454 14.0743 16.1858 14.0743C17.0628 14.0743 17.9442 14.1534 18.816 14.31ZM5.30744 15.9038C7.60303 10.041 13.3165 5.97079 19.8706 5.97079C20.4532 5.97079 20.9253 5.49866 20.9253 4.91611V2.48291L26.7379 8.29523C27.2279 8.78549 27.2279 9.5831 26.7379 10.0734L20.9253 15.8857V13.4522C20.9253 12.9633 20.5894 12.5384 20.1134 12.4258C18.8209 12.1201 17.4992 11.9649 16.1858 11.9649C13.4667 11.9649 10.7619 12.623 8.36356 13.8683C7.27674 14.4325 6.25061 15.1175 5.30744 15.9038Z" fill="#C53D28"/>
<path d="M33.065 15.4561C32.6187 15.2795 32.1092 15.4267 31.8258 15.814C29.0248 19.6408 24.5278 21.9257 19.7958 21.9257C18.919 21.9257 18.0377 21.8466 17.1656 21.69V19.88C17.1656 18.3268 16.287 17.6314 15.4161 17.6314C14.8453 17.6314 14.2781 17.9094 13.7305 18.4573L7.75227 24.4352C6.43967 25.7478 6.43967 27.8836 7.75227 29.1964L13.7305 35.1744C14.2781 35.7223 14.8453 36 15.4161 36C16.2867 36 17.1656 35.3046 17.1656 33.7514V32.1075C25.6534 31.6063 32.6794 25.0928 33.7237 16.5652C33.7822 16.0887 33.5114 15.6327 33.065 15.4561ZM16.1109 30.0292C15.5284 30.0292 15.0563 30.5013 15.0563 31.0839V33.5171L9.24393 27.705C8.75367 27.2145 8.75367 26.4169 9.24366 25.9269L15.0563 20.1143V22.5478C15.0563 23.037 15.3924 23.4619 15.8684 23.5745C17.1612 23.8799 18.4826 24.0351 19.7958 24.0351C22.5151 24.0351 25.22 23.377 27.618 22.132C28.7048 21.5675 29.731 20.8828 30.6741 20.0965C28.3785 25.959 22.6651 30.0292 16.1109 30.0292Z" fill="#C53D28"/>
</g>
<defs>
<clipPath id="clip0">
<rect width="36" height="36" fill="white"/>
</clipPath>
</defs>
</svg>
