<svg width="49" height="49" viewBox="0 0 49 49" fill="none" xmlns="http://www.w3.org/2000/svg">
<path d="M40 38.8221C40.4206 38.2206 40.6682 37.5152 40.7159 36.7828C40.7635 36.0504 40.6094 35.3189 40.2702 34.6679C39.9311 34.017 39.4199 33.4715 38.7924 33.0909C38.1648 32.7102 37.4449 32.5089 36.7109 32.5089C35.9769 32.5089 35.257 32.7102 34.6294 33.0909C34.0019 33.4715 33.4907 34.017 33.1516 34.6679C32.8125 35.3189 32.6583 36.0504 32.706 36.7828C32.7536 37.5152 33.0012 38.2206 33.4218 38.8221C32.1966 39.5099 31.2132 40.5586 30.6054 41.8253C29.9976 40.5586 29.0142 39.5099 27.7891 38.8221C28.2097 38.2206 28.4573 37.5152 28.5049 36.7828C28.5525 36.0504 28.3984 35.3189 28.0593 34.6679C27.7201 34.017 27.209 33.4715 26.5814 33.0909C25.9539 32.7102 25.2339 32.5089 24.5 32.5089C23.766 32.5089 23.046 32.7102 22.4185 33.0909C21.7909 33.4715 21.2798 34.017 20.9406 34.6679C20.6015 35.3189 20.4474 36.0504 20.495 36.7828C20.5426 37.5152 20.7902 38.2206 21.2108 38.8221C19.9857 39.5099 19.0023 40.5586 18.3945 41.8253C17.7866 40.5586 16.8032 39.5099 15.5781 38.8221C15.9987 38.2206 16.2463 37.5152 16.2939 36.7828C16.3416 36.0504 16.1875 35.3189 15.8483 34.6679C15.5092 34.017 14.998 33.4715 14.3705 33.0909C13.7429 32.7102 13.023 32.5089 12.289 32.5089C11.555 32.5089 10.8351 32.7102 10.2075 33.0909C9.57997 33.4715 9.06882 34.017 8.72968 34.6679C8.39055 35.3189 8.23642 36.0504 8.28405 36.7828C8.33169 37.5152 8.57928 38.2206 8.99987 38.8221C7.94691 39.4124 7.06935 40.2714 6.4567 41.3115C5.84404 42.3516 5.51822 43.5356 5.51245 44.7427C5.51245 44.9204 5.58303 45.0908 5.70867 45.2164C5.8343 45.342 6.0047 45.4126 6.18237 45.4126H42.8152C42.9929 45.4126 43.1633 45.342 43.2889 45.2164C43.4146 45.0908 43.4852 44.9204 43.4852 44.7427C43.4795 43.5358 43.154 42.3521 42.5417 41.312C41.9295 40.2719 41.0525 39.4128 40 38.8221ZM36.7117 33.8555C37.2405 33.8555 37.7574 34.0123 38.197 34.3061C38.6367 34.5999 38.9794 35.0174 39.1817 35.5059C39.3841 35.9945 39.437 36.532 39.3339 37.0507C39.2307 37.5693 38.9761 38.0457 38.6022 38.4196C38.2283 38.7935 37.7519 39.0481 37.2333 39.1513C36.7146 39.2544 36.1771 39.2015 35.6885 38.9991C35.2 38.7968 34.7825 38.4541 34.4887 38.0144C34.1949 37.5748 34.0381 37.0579 34.0381 36.5291C34.0389 35.8202 34.3209 35.1407 34.8221 34.6395C35.3233 34.1383 36.0028 33.8563 36.7117 33.8555ZM24.5 33.8555C25.0287 33.8555 25.5456 34.0123 25.9853 34.3061C26.425 34.5999 26.7676 35.0174 26.97 35.5059C27.1724 35.9945 27.2253 36.532 27.1221 37.0507C27.019 37.5693 26.7643 38.0457 26.3904 38.4196C26.0165 38.7935 25.5402 39.0481 25.0215 39.1513C24.5029 39.2544 23.9654 39.2015 23.4768 38.9991C22.9883 38.7968 22.5707 38.4541 22.277 38.0144C21.9832 37.5748 21.8264 37.0579 21.8264 36.5291C21.8272 35.8202 22.1091 35.1407 22.6104 34.6395C23.1116 34.1383 23.7911 33.8563 24.5 33.8555ZM12.2882 33.8555C12.817 33.8555 13.3339 34.0123 13.7736 34.3061C14.2133 34.5999 14.5559 35.0174 14.7583 35.5059C14.9606 35.9945 15.0136 36.532 14.9104 37.0507C14.8073 37.5693 14.5526 38.0457 14.1787 38.4196C13.8048 38.7935 13.3284 39.0481 12.8098 39.1513C12.2912 39.2544 11.7536 39.2015 11.2651 38.9991C10.7766 38.7968 10.359 38.4541 10.0652 38.0144C9.77147 37.5748 9.61467 37.0579 9.61467 36.5291C9.61548 35.8202 9.89742 35.1407 10.3986 34.6395C10.8998 34.1383 11.5794 33.8563 12.2882 33.8555ZM6.89555 44.0728C7.01291 43.1603 7.35798 42.2921 7.89899 41.5481C8.44 40.804 9.15955 40.2081 9.99136 39.8151C10.6638 40.2883 11.466 40.5423 12.2882 40.5423C13.1105 40.5423 13.9127 40.2883 14.5851 39.8151C15.4169 40.2081 16.1365 40.8041 16.6776 41.5481C17.2186 42.2921 17.5638 43.1603 17.6813 44.0728H6.89555ZM19.1073 44.0728C19.2247 43.1604 19.5698 42.2922 20.1108 41.5481C20.6518 40.8041 21.3713 40.2081 22.2031 39.8151C22.8755 40.2883 23.6777 40.5423 24.5 40.5423C25.3222 40.5423 26.1244 40.2883 26.7968 39.8151C27.6286 40.2081 28.3482 40.8041 28.8893 41.5481C29.4303 42.2921 29.7755 43.1603 29.893 44.0728H19.1073ZM31.319 44.0728C31.4364 43.1604 31.7815 42.2921 32.3225 41.5481C32.8635 40.8041 33.583 40.2081 34.4148 39.8151C35.0872 40.2883 35.8894 40.5423 36.7117 40.5423C37.5339 40.5423 38.3361 40.2883 39.0085 39.8151C39.8404 40.2081 40.5599 40.8041 41.101 41.5481C41.6421 42.2921 41.9872 43.1603 42.1047 44.0728H31.319Z" fill="#C53D28"/>
<path d="M17.0918 25.6775C17.086 24.4706 16.7604 23.2867 16.148 22.2467C15.5357 21.2066 14.6585 20.3475 13.6059 19.7569C14.0265 19.1554 14.274 18.45 14.3216 17.7176C14.3692 16.9852 14.215 16.2538 13.8758 15.6029C13.5367 14.952 13.0256 14.4065 12.398 14.0259C11.7705 13.6452 11.0506 13.444 10.3166 13.444C9.58265 13.444 8.86274 13.6452 8.2352 14.0259C7.60766 14.4065 7.09651 14.952 6.75737 15.6029C6.41822 16.2538 6.26405 16.9852 6.31164 17.7176C6.35924 18.45 6.60676 19.1554 7.02729 19.7569C5.97459 20.3474 5.09731 21.2065 4.48487 22.2465C3.87243 23.2866 3.54674 24.4705 3.54102 25.6775C3.54102 25.8552 3.6116 26.0256 3.73723 26.1512C3.86287 26.2768 4.03326 26.3474 4.21094 26.3474H16.4227C16.6002 26.3472 16.7704 26.2765 16.8959 26.1509C17.0213 26.0253 17.0918 25.855 17.0918 25.6775ZM10.316 14.7907C10.8448 14.7907 11.3617 14.9475 11.8014 15.2413C12.241 15.535 12.5837 15.9526 12.7861 16.4411C12.9884 16.9296 13.0414 17.4672 12.9382 17.9858C12.8351 18.5044 12.5804 18.9808 12.2065 19.3547C11.8326 19.7286 11.3562 19.9833 10.8376 20.0864C10.319 20.1896 9.78143 20.1366 9.2929 19.9343C8.80437 19.7319 8.38682 19.3893 8.09305 18.9496C7.79927 18.5099 7.64247 17.993 7.64247 17.4642C7.64328 16.7553 7.92527 16.0757 8.42657 15.5745C8.92787 15.0733 9.60752 14.7914 10.3164 14.7907H10.316ZM4.92297 25.0076C5.04042 24.0952 5.38553 23.2271 5.92654 22.4831C6.46754 21.7391 7.18704 21.1432 8.01877 20.7503C8.69122 21.2235 9.4934 21.4774 10.3156 21.4774C11.1379 21.4774 11.9401 21.2235 12.6125 20.7503C13.4442 21.1433 14.1637 21.7392 14.7047 22.4832C15.2457 23.2271 15.5908 24.0952 15.7083 25.0076H4.92297Z" fill="#C53D28"/>
<path d="M44.7891 3.58728H17.418C17.2403 3.58728 17.0699 3.65786 16.9443 3.7835C16.8186 3.90913 16.748 4.07953 16.748 4.2572V19.572C16.748 19.7497 16.8186 19.9201 16.9443 20.0457C17.0699 20.1713 17.2403 20.2419 17.418 20.2419H27.9836L24.5651 28.0417C24.5205 28.1436 24.5019 28.255 24.5111 28.3658C24.5203 28.4766 24.5569 28.5834 24.6177 28.6766C24.6785 28.7697 24.7615 28.8462 24.8592 28.8993C24.957 28.9523 25.0664 28.9802 25.1776 28.9804H27.2574C27.3874 28.9802 27.5145 28.9421 27.6233 28.8709C27.7321 28.7996 27.8177 28.6983 27.8699 28.5792L31.0855 21.2414L34.3011 28.5792C34.3533 28.6983 34.439 28.7996 34.5477 28.8709C34.6565 28.9421 34.7836 28.9802 34.9137 28.9804H36.9935C37.1047 28.9802 37.2141 28.9523 37.3118 28.8993C37.4096 28.8462 37.4926 28.7697 37.5534 28.6766C37.6141 28.5834 37.6508 28.4766 37.6599 28.3658C37.6691 28.255 37.6506 28.1436 37.606 28.0417L34.1913 20.2419H44.7891C44.9667 20.2419 45.1371 20.1713 45.2628 20.0457C45.3884 19.9201 45.459 19.7497 45.459 19.572V4.2572C45.459 4.07953 45.3884 3.90913 45.2628 3.7835C45.1371 3.65786 44.9667 3.58728 44.7891 3.58728ZM26.8206 27.639H26.2039L29.4452 20.2404H30.0619L26.8206 27.639ZM35.9698 27.639H35.3527L32.1115 20.2419H32.7282L35.9698 27.639ZM44.1191 18.9021H18.0879V4.92712H44.1191V18.9021Z" fill="#C53D28"/>
<path d="M24.8395 16.2695C25.7004 16.2695 26.5419 16.0143 27.2577 15.536C27.9735 15.0578 28.5314 14.3781 28.861 13.5828C29.1905 12.7875 29.2768 11.9124 29.109 11.068C28.9412 10.2237 28.5268 9.44808 27.9182 8.83923C27.3096 8.23038 26.5342 7.81565 25.6899 7.64747C24.8457 7.4793 23.9705 7.56523 23.1751 7.8944C22.3796 8.22357 21.6996 8.7812 21.2211 9.49679C20.7426 10.2124 20.487 11.0538 20.4866 11.9146C20.4874 13.0691 20.9462 14.176 21.7623 14.9924C22.5784 15.8089 23.6851 16.2682 24.8395 16.2695ZM24.8395 8.90344C25.4355 8.90344 26.018 9.08016 26.5135 9.41125C27.009 9.74233 27.3952 10.2129 27.6233 10.7635C27.8513 11.3141 27.911 11.9199 27.7948 12.5044C27.6785 13.0889 27.3915 13.6258 26.9701 14.0472C26.5487 14.4685 26.0118 14.7555 25.4274 14.8718C24.8429 14.988 24.237 14.9284 23.6865 14.7003C23.1359 14.4723 22.6653 14.0861 22.3342 13.5906C22.0031 13.0951 21.8264 12.5125 21.8264 11.9166C21.8268 11.1174 22.1443 10.351 22.7093 9.78574C23.2742 9.22045 24.0404 8.90244 24.8395 8.90153V8.90344Z" fill="#C53D28"/>
<path d="M31.8213 9.85974H40.9609C41.1386 9.85974 41.309 9.78916 41.4346 9.66353C41.5603 9.53789 41.6309 9.36749 41.6309 9.18982C41.6309 9.01215 41.5603 8.84175 41.4346 8.71611C41.309 8.59048 41.1386 8.5199 40.9609 8.5199H31.8213C31.6436 8.5199 31.4732 8.59048 31.3476 8.71611C31.2219 8.84175 31.1514 9.01215 31.1514 9.18982C31.1514 9.36749 31.2219 9.53789 31.3476 9.66353C31.4732 9.78916 31.6436 9.85974 31.8213 9.85974Z" fill="#C53D28"/>
<path d="M31.8213 12.5846H40.9609C41.1386 12.5846 41.309 12.514 41.4346 12.3884C41.5603 12.2627 41.6309 12.0923 41.6309 11.9147C41.6309 11.737 41.5603 11.5666 41.4346 11.441C41.309 11.3153 41.1386 11.2448 40.9609 11.2448H31.8213C31.6436 11.2448 31.4732 11.3153 31.3476 11.441C31.2219 11.5666 31.1514 11.737 31.1514 11.9147C31.1514 12.0923 31.2219 12.2627 31.3476 12.3884C31.4732 12.514 31.6436 12.5846 31.8213 12.5846Z" fill="#C53D28"/>
<path d="M31.8213 15.3094H40.9609C41.1386 15.3094 41.309 15.2389 41.4346 15.1132C41.5603 14.9876 41.6309 14.8172 41.6309 14.6395C41.6309 14.4619 41.5603 14.2915 41.4346 14.1658C41.309 14.0402 41.1386 13.9696 40.9609 13.9696H31.8213C31.6436 13.9696 31.4732 14.0402 31.3476 14.1658C31.2219 14.2915 31.1514 14.4619 31.1514 14.6395C31.1514 14.8172 31.2219 14.9876 31.3476 15.1132C31.4732 15.2389 31.6436 15.3094 31.8213 15.3094Z" fill="#C53D28"/>
</svg>
